<svg width="621.58" height="915.33" viewBox="0 0 621.58 915.33" xmlns="http://www.w3.org/2000/svg" xmlns:xlink="http://www.w3.org/1999/xlink" overflow="hidden"><defs></defs><g><path d="M104.33 437.75C104.33 437.75 132.92 464.25 173.43 443.27 213.94 422.29 211.47 482.93 207.6 492.4 203.73 501.87 208.82 499.21 208.82 499.21 173.7 526.42 98.08 518.05 80.24 470.89 73.82 453.93 66.47 399.47 75.51 398.18 84.55 396.89 97.45 411.52 97.45 411.52 97.45 411.52 106.06 396.46 112.51 401.19 118.96 405.9 112.51 425.27 104.33 437.75L104.33 437.75Z" fill="#E2D9DA" fill-rule="evenodd" clip-rule="evenodd"/><path d="M460.67 679.22C460.67 679.22 542 753.18 547.14 817.85 554.21 906.88 450.41 910.29 388 900.77 357.82 896.16 313.65 897.1 293.61 915.32 293.61 915.32 312.07 895.12 359.87 895.12 410.74 893.25 451.04 911.37 503.16 886.35 579.28 843.75 520.91 744.68 457.81 692.12 435.96 673.92 425.47 683.24 425.47 683.24L460.67 679.22 460.67 679.22Z" fill="#D9CCCE" fill-rule="evenodd" clip-rule="evenodd"/><path d="M193.22 750.13 198.57 833.76 256.65 830.88 261.19 761.67 193.22 750.13Z" fill="#E2D9DA" fill-rule="evenodd" clip-rule="evenodd"/><path d="M193.15 798.38 261.36 796.38 256.65 830.88 198.57 833.76 193.15 798.38Z" fill="#FFEE82" fill-rule="evenodd" clip-rule="evenodd"/><path d="M195.86 816.07 260.74 816.07C260.74 826.59 267.95 862.71 254.27 865.66 245.5 867.55 163.89 865.66 163.89 865.66 163.89 865.66 152.96 857.81 160.96 841.95 168.98 826.09 195.86 816.07 195.86 816.07L195.86 816.07Z" fill="#EC5276" fill-rule="evenodd" clip-rule="evenodd"/><path d="M261.87 830.12C263.17 844.64 264.02 863.56 254.28 865.66 252.67 866.01 248.62 866.23 243.07 866.35 243.31 846.35 253.08 835.68 261.87 830.12L261.87 830.12Z" fill="#FE8CA6" fill-rule="evenodd" clip-rule="evenodd"/><path d="M181.83 866.02C171.28 865.83 163.9 865.66 163.9 865.66 163.9 865.66 152.97 857.81 160.97 841.95 162.85 838.23 165.77 834.83 169.15 831.8 176.54 839 187.06 852.32 181.83 866.02L181.83 866.02Z" fill="#FE8CA6" fill-rule="evenodd" clip-rule="evenodd"/><path d="M195.11 815.64C181.76 783.25 165.95 804.12 194.57 815.42L194.45 815.72 195.11 815.64 195.11 815.64ZM177.19 796.99C184.82 787.87 196.31 815.78 196.34 815.86L196.6 816.49 195.92 816.58C195.86 816.59 173.11 819.7 173.74 814.04 174.14 810.43 182.49 811.99 188.48 813.58 181.77 809.89 172.06 803.13 177.19 796.99L177.19 796.99ZM192.74 815.91C171.45 808.24 170.17 818.34 192.74 815.91L192.74 815.91Z" fill="#633300" fill-rule="evenodd" clip-rule="evenodd"/><path d="M184.78 828.75C186.82 828.75 188.47 830.4 188.47 832.44 188.47 834.48 186.82 836.13 184.78 836.13 182.74 836.13 181.09 834.48 181.09 832.44 181.09 830.4 182.74 828.75 184.78 828.75L184.78 828.75Z" fill="#FFEE82" fill-rule="evenodd" clip-rule="evenodd"/><path d="M192.93 822.65C194.97 822.65 196.62 824.3 196.62 826.34 196.62 828.38 194.97 830.03 192.93 830.03 190.89 830.03 189.24 828.38 189.24 826.34 189.24 824.3 190.89 822.65 192.93 822.65L192.93 822.65Z" fill="#FFEE82" fill-rule="evenodd" clip-rule="evenodd"/><path d="M176.91 825.86C177.93 825.19 178.95 824.54 179.96 823.93L185.39 829.65C186.06 830.36 186.04 831.48 185.33 832.15 184.62 832.82 183.5 832.8 182.83 832.09L176.91 825.86 176.91 825.86ZM185.91 820.6C187.06 820 188.16 819.46 189.18 818.97L193.57 824.07C194.2 824.81 194.12 825.93 193.38 826.56 192.64 827.2 191.52 827.11 190.89 826.37L185.91 820.6 185.91 820.6Z" fill="#633300" fill-rule="evenodd" clip-rule="evenodd"/><path d="M163.31 872.55C161.48 872.55 159.99 870.96 159.99 869 159.99 867.04 161.48 865.45 163.31 865.45L258.54 865.45C260.37 865.45 261.86 867.04 261.86 869 261.86 870.96 260.37 872.55 258.54 872.55L163.31 872.55 163.31 872.55Z" fill="#D1395C" fill-rule="evenodd" clip-rule="evenodd"/><path d="M378.52 750.13 383.87 833.76 441.95 830.88 446.49 761.67 378.52 750.13Z" fill="#E2D9DA" fill-rule="evenodd" clip-rule="evenodd"/><path d="M378.45 798.38 446.66 796.38 441.95 830.88 383.87 833.76 378.45 798.38Z" fill="#FFEE82" fill-rule="evenodd" clip-rule="evenodd"/><path d="M381.16 816.07 446.04 816.07C446.04 826.59 453.25 862.71 439.57 865.66 430.8 867.55 349.19 865.66 349.19 865.66 349.19 865.66 338.26 857.81 346.26 841.95 354.28 826.09 381.16 816.07 381.16 816.07L381.16 816.07Z" fill="#EC5276" fill-rule="evenodd" clip-rule="evenodd"/><path d="M447.17 830.12C448.47 844.64 449.32 863.56 439.58 865.66 437.97 866.01 433.92 866.23 428.37 866.35 428.61 846.35 438.38 835.68 447.17 830.12L447.17 830.12Z" fill="#FE8CA6" fill-rule="evenodd" clip-rule="evenodd"/><path d="M367.13 866.02C356.58 865.83 349.2 865.66 349.2 865.66 349.2 865.66 338.27 857.81 346.27 841.95 348.15 838.23 351.07 834.83 354.45 831.8 361.84 839 372.36 852.32 367.13 866.02L367.13 866.02Z" fill="#FE8CA6" fill-rule="evenodd" clip-rule="evenodd"/><path d="M380.41 815.64C367.06 783.25 351.25 804.12 379.87 815.42L379.75 815.72 380.41 815.64 380.41 815.64ZM362.49 796.99C370.12 787.87 381.61 815.78 381.64 815.86L381.9 816.49 381.22 816.58C381.16 816.59 358.41 819.7 359.04 814.04 359.44 810.43 367.79 811.99 373.78 813.58 367.07 809.89 357.36 803.13 362.49 796.99L362.49 796.99ZM378.04 815.91C356.75 808.24 355.47 818.34 378.04 815.91L378.04 815.91Z" fill="#633300" fill-rule="evenodd" clip-rule="evenodd"/><path d="M370.08 828.75C372.12 828.75 373.77 830.4 373.77 832.44 373.77 834.48 372.12 836.13 370.08 836.13 368.04 836.13 366.39 834.48 366.39 832.44 366.39 830.4 368.04 828.75 370.08 828.75L370.08 828.75Z" fill="#FFEE82" fill-rule="evenodd" clip-rule="evenodd"/><path d="M378.23 822.65C380.27 822.65 381.92 824.3 381.92 826.34 381.92 828.38 380.27 830.03 378.23 830.03 376.19 830.03 374.54 828.38 374.54 826.34 374.54 824.3 376.19 822.65 378.23 822.65L378.23 822.65Z" fill="#FFEE82" fill-rule="evenodd" clip-rule="evenodd"/><path d="M362.21 825.86C363.23 825.19 364.25 824.54 365.26 823.93L370.69 829.65C371.36 830.36 371.34 831.48 370.63 832.15 369.92 832.82 368.8 832.8 368.13 832.09L362.21 825.86 362.21 825.86ZM371.21 820.6C372.36 820 373.46 819.46 374.48 818.97L378.87 824.07C379.5 824.81 379.42 825.93 378.68 826.56 377.94 827.2 376.82 827.11 376.19 826.37L371.21 820.6 371.21 820.6Z" fill="#633300" fill-rule="evenodd" clip-rule="evenodd"/><path d="M348.61 872.55C346.78 872.55 345.29 870.96 345.29 869 345.29 867.04 346.78 865.45 348.61 865.45L443.84 865.45C445.67 865.45 447.16 867.04 447.16 869 447.16 870.96 445.67 872.55 443.84 872.55L348.61 872.55 348.61 872.55Z" fill="#D1395C" fill-rule="evenodd" clip-rule="evenodd"/><path d="M176.72 640.01C176.72 640.01 169.83 696.31 169.83 727.34 169.83 751.25 170.85 770.38 171.32 777.89L280.95 777.89 283.01 748.59C297.39 753.61 334.36 757.11 357.12 753.18L357.12 777.88 468.57 777.88C468.46 765.65 467.02 657.51 450.77 614.72 433.52 569.34 176.72 640.01 176.72 640.01L176.72 640.01Z" fill="#A2DF5D" fill-rule="evenodd" clip-rule="evenodd"/><path d="M183.61 777.89 188.82 777.89C182.14 732.36 190.11 653.72 190.14 653.43L184.86 652.91C184.83 653.2 176.95 730.81 183.61 777.89L183.61 777.89ZM200.2 777.89 205.52 777.89C204.1 754.46 201.63 701.5 205.83 668.29 208.09 650.36 211.76 638.21 215.27 630.13 213.12 630.65 211.03 631.17 209.03 631.66 205.75 640.12 202.58 651.78 200.58 667.62 196.34 701.14 198.77 754.14 200.2 777.89L200.2 777.89ZM217.87 777.89 223.18 777.89C219.41 734.2 223.05 659 224.85 627.82 223.01 628.26 221.22 628.69 219.46 629.12 217.63 661.14 214.2 734.28 217.87 777.89L217.87 777.89ZM233.09 777.89 238.4 777.89C237.3 750.01 235.99 690.51 243.21 660.25 249.58 633.55 258.79 624.93 263.92 622.15 259.76 641.11 244.54 715.46 247 777.88L252.31 777.88C249.44 706.58 270.07 619.05 270.13 618.78L270.41 617.57C266.08 618.48 261.81 619.4 257.63 620.31 251.38 625.52 243.44 636.38 238.04 659.02 230.7 689.76 231.98 749.66 233.09 777.89L233.09 777.89ZM266.28 777.89 271.58 777.89C270.42 742.36 270.79 700.88 276.03 668.37 284.71 614.57 291.28 612.49 293.33 613.44 291.99 623.95 283.6 692.69 285.99 749.51 287.61 749.97 289.41 750.41 291.36 750.82 288.55 689.56 298.74 613.01 298.77 612.75L298.88 611.89C294.4 612.74 289.94 613.6 285.51 614.48 280.93 621.87 275.68 637.18 270.79 667.54 265.51 700.35 265.13 742.12 266.28 777.89L266.28 777.89ZM303.97 752.94C305.7 753.16 307.48 753.37 309.29 753.56 308.84 733.1 308.59 708.04 308.9 679.45 309.3 643.21 310.04 650.2 310.04 650.22L310.16 651.32 311.02 652.01C311.06 652.04 323.85 661.22 320.74 754.49 322.49 754.59 324.25 754.67 326.01 754.73 328.56 672.88 318.36 652.98 315.23 648.85 314.22 639.83 304.9 559.87 303.6 679.41 303.29 707.73 303.53 732.57 303.97 752.94L303.97 752.94ZM335.12 754.87C336.91 754.86 338.69 754.82 340.44 754.76 341.09 734.33 341.28 709.98 340.28 684.03 338.15 628.35 344.05 628.05 345.78 629.11 346.85 635.89 353.25 680.84 348.43 754.28 350.27 754.11 352.06 753.92 353.78 753.69 358.94 673.83 350.9 627.48 350.88 627.33L350.75 626.59 350.26 626.03C350.21 625.97 331.92 604.09 334.98 684.21 335.97 710.13 335.78 734.46 335.12 754.87L335.12 754.87ZM366.63 777.89 371.96 777.89C375.18 747.25 377.28 709.5 374.93 670.57 370.97 604.84 381.84 640.94 382.62 643.59 383.15 647.01 391.45 702.65 382.65 777.89L387.98 777.89C397.02 699.89 387.86 642.8 387.83 642.61L387.8 642.43 387.76 642.28C387.69 642.03 362.65 555.1 369.63 670.89 371.97 709.75 369.85 747.4 366.63 777.89L366.63 777.89ZM399.57 777.89 404.92 777.89C408.6 751.49 412.01 711.52 408.65 665.46 404.32 606.16 411.86 625.36 412.66 627.53 413.42 631.33 427.51 703.17 420.38 777.88L425.72 777.88C432.99 700.57 417.9 626.55 417.85 626.31L417.82 626.14 417.75 625.94C417.69 625.77 395.91 563.85 403.36 665.82 406.72 711.94 403.25 751.82 399.57 777.89L399.57 777.89ZM436.38 777.89 441.68 777.89C443.08 744.2 443.35 692.15 434.93 653.54 425.05 608.22 438.89 623.94 441.39 627.04 442.87 634.58 457.63 711.81 455.4 777.89L460.7 777.89C463.03 707.78 446.53 625.67 446.48 625.41L446.36 624.83 445.98 624.33C445.89 624.2 413.75 581.39 429.72 654.67 438.07 692.87 437.77 744.51 436.38 777.89L436.38 777.89Z" fill="#91D149" fill-rule="evenodd" clip-rule="evenodd"/><path d="M281.8 765.74 283 748.59C257.11 739.39 236.83 722.85 236.83 722.85 246.35 742.17 265.33 756.39 281.8 765.74L281.8 765.74Z" fill="#91D149" fill-rule="evenodd" clip-rule="evenodd"/><path d="M427.69 519.57 483.34 606.96C483.34 606.96 475.51 629.64 477.98 638.7 480.45 647.77 491.17 647.35 491.17 647.35 491.17 647.35 487.05 656.83 493.23 660.95 499.41 665.07 509.31 658.07 509.31 658.07 509.31 658.07 513.43 662.19 520.44 660.13 527.45 658.07 529.92 650.65 529.92 650.65 529.92 650.65 539.81 652.3 541.46 640.35 545.88 621.81 521.29 599.79 521.29 599.79 521.29 599.79 478.81 480.41 459.85 468.05 440.88 455.68 427.69 519.57 427.69 519.57L427.69 519.57Z" fill="#E2D9DA" fill-rule="evenodd" clip-rule="evenodd"/><path d="M509.31 658.04C514.75 652.6 513.08 642.01 511.08 637.1 510.94 636.76 510.55 636.6 510.22 636.74 509.88 636.88 509.72 637.26 509.86 637.6 514.14 648.04 510.32 654.11 509.31 658.04L509.31 658.04ZM529.92 650.65C532.27 645.83 531.35 637.44 527.75 633.6 527.5 633.33 527.08 633.32 526.81 633.57 526.54 633.82 526.53 634.23 526.78 634.5 532.1 640.19 530.16 647.53 529.92 650.65L529.92 650.65Z" fill="#C9BBBD" fill-rule="evenodd" clip-rule="evenodd"/><path d="M68.93 261.88C90.4 261.88 107.81 279.29 107.81 300.76 107.81 322.23 90.4 339.64 68.93 339.64 47.46 339.64 30.05 322.23 30.05 300.76 30.05 279.29 47.46 261.88 68.93 261.88L68.93 261.88Z" fill="#FEE958" fill-rule="evenodd" clip-rule="evenodd"/><path d="M243.95 407.56C214.69 412.39 186.71 428.86 156.52 444.81 156.52 444.81 177.81 517.54 228.36 540.6 278.92 563.67 243.95 407.56 243.95 407.56L243.95 407.56Z" fill="#FFD84C" fill-rule="evenodd" clip-rule="evenodd"/><path d="M403.37 405.65C429.15 420.29 459.04 449.46 481.85 474.86 481.85 474.86 436.73 535.75 381.32 539.9 325.91 544.06 403.37 405.65 403.37 405.65L403.37 405.65Z" fill="#FFD84C" fill-rule="evenodd" clip-rule="evenodd"/><path d="M243.44 380.96C210.05 472.4 174.48 565.57 155.63 661.23 225.7 693.6 431.03 677.64 472.27 655.91 472.27 655.91 406.64 390.71 388.01 356.12 369.39 321.53 243.44 380.96 243.44 380.96L243.44 380.96Z" fill="#FEE958" fill-rule="evenodd" clip-rule="evenodd"/><path d="M289.26 0.11C238.46-2.39 198.17 39.72 199.27 94.19 200.37 148.65 242.43 194.83 293.23 197.34 344.03 199.84 384.32 157.72 383.22 103.26 382.13 48.8 340.06 2.61 289.26 0.11L289.26 0.11Z" fill="#D9CCCE" fill-rule="evenodd" clip-rule="evenodd"/><path d="M289.68 15.72C245.48 13.54 210.42 50.19 211.37 97.58 212.32 144.97 248.93 185.16 293.13 187.34 337.33 189.52 372.39 152.87 371.44 105.48 370.49 58.09 333.88 17.91 289.68 15.72L289.68 15.72Z" fill="#FFB2A1" fill-rule="evenodd" clip-rule="evenodd"/><path d="M514.36 121.87C450.84 120.79 395.72 171.84 391.25 235.88 386.78 299.93 434.66 352.72 498.18 353.8 561.7 354.88 616.82 303.83 621.29 239.78 625.76 175.74 577.88 122.94 514.36 121.87L514.36 121.87Z" fill="#D9CCCE" fill-rule="evenodd" clip-rule="evenodd"/><path d="M508.7 135.86C453.01 134.91 404.69 179.67 400.77 235.81 396.85 291.97 438.83 338.25 494.52 339.2 550.21 340.15 598.53 295.39 602.45 239.25 606.37 183.09 564.39 136.8 508.7 135.86L508.7 135.86Z" fill="#FFB2A1" fill-rule="evenodd" clip-rule="evenodd"/><path d="M414.54 157.2C414.54 157.2 400.41 147.25 407.05 130.39 413.7 113.54 424.69 111.05 424.69 111.05 377.64 115.9 399.6 181.3 414.54 157.2L414.54 157.2Z" fill="#8F7B7E" fill-rule="evenodd" clip-rule="evenodd"/><path d="M401.38 153.43C391.75 142.43 392.61 124.44 402.38 110.14 401.6 111.08 366.41 140.49 401.38 153.43L401.38 153.43Z" fill="#A38F92" fill-rule="evenodd" clip-rule="evenodd"/><path d="M466.61 285.8C475.93 186.91 401.82 136.63 359.18 123.43 316.54 110.23 272.75 120.28 231.52 134.89 190.28 149.51 157.75 145.13 149.96 123.1 125.95 55.23 68.21 385.64 295.16 418.95 377.27 431.02 457.25 385.13 466.61 285.8L466.61 285.8Z" fill="#E2D9DA" fill-rule="evenodd" clip-rule="evenodd"/><path d="M139.91 90.42C128.29 89.85 118.41 98.8 117.83 110.42 117.26 122.04 126.21 131.93 137.83 132.5 149.45 133.07 159.33 124.12 159.91 112.5 160.48 100.88 151.53 90.99 139.91 90.42L139.91 90.42Z" fill="#FFB2A1" fill-rule="evenodd" clip-rule="evenodd"/><path d="M347.97 251.89C347.86 254.06 349.42 255.9 351.44 255.99 353.46 256.09 355.19 254.42 355.3 252.25 355.66 244.96 354.67 238.55 352.62 233.12 350.21 226.75 346.34 221.77 341.46 218.29 336.62 214.85 330.81 212.92 324.48 212.61L324.48 212.59C318.13 212.28 311.22 213.61 304.19 216.7 302.32 217.53 301.42 219.81 302.17 221.81 302.93 223.81 305.06 224.76 306.93 223.94 312.89 221.32 318.74 220.18 324.09 220.45L324.09 220.44C329.1 220.69 333.65 222.18 337.38 224.84 341.07 227.46 344 231.25 345.85 236.13 347.48 240.47 348.27 245.74 347.97 251.89L347.97 251.89Z" fill="#8F7B7E" fill-rule="evenodd" clip-rule="evenodd"/><path d="M252.36 186.1C252.27 187.98 253.51 189.46 255.14 189.39 256.77 189.32 258.16 187.73 258.25 185.85 258.56 179.5 257.79 174.02 256.16 169.47 254.24 164.12 251.15 160.09 247.24 157.46 243.36 154.84 238.7 153.61 233.61 153.83L233.61 153.82C228.51 154.03 222.94 155.71 217.29 158.93 215.78 159.79 215.05 161.84 215.65 163.51 216.25 165.18 217.96 165.85 219.47 164.99 224.27 162.26 228.98 160.83 233.27 160.65L233.27 160.64C237.3 160.47 240.95 161.42 243.94 163.44 246.9 165.44 249.24 168.5 250.71 172.58 252.01 176.24 252.63 180.75 252.36 186.1L252.36 186.1Z" fill="#8F7B7E" fill-rule="evenodd" clip-rule="evenodd"/><path d="M365.59 196.7C367.97 200.75 370.48 208.58 367.99 212.08 365.14 216.09 358.07 208.51 354.46 201.95 347.57 189.42 359.27 185.9 365.59 196.7L365.59 196.7Z" fill="#C4B5B7" fill-rule="evenodd" clip-rule="evenodd"/><path d="M262.1 133.68C258.11 133.21 250.98 134.17 248.8 137.9 246.31 142.16 254.51 145.43 260.9 145.98 273.12 147.04 272.73 134.94 262.1 133.68L262.1 133.68Z" fill="#C4B5B7" fill-rule="evenodd" clip-rule="evenodd"/><path d="M202.38 308.69C208.33 330.16 200.46 337.44 190.95 337.51 172.96 337.65 166.35 318.32 163.42 307.48 163.43 307.48 194.38 314.9 202.38 308.69L202.38 308.69Z" fill="#FFFFFF" fill-rule="evenodd" clip-rule="evenodd"/><path d="M181.7 310.91C181.71 310.97 184.19 331.42 195.18 346.4L197.29 344.85C186.71 330.44 184.31 310.65 184.3 310.59L181.7 310.91 181.7 310.91Z" fill="#E2D9DA" fill-rule="evenodd" clip-rule="evenodd"/><path d="M143.62 294.05C144.49 296.37 145.38 298.68 146.32 300.98 153.33 305.77 161.39 309.44 170.05 311.45 182.54 314.35 196.27 313.8 209.82 308.12 218.99 304.27 228.08 298.08 236.62 289.04 237.36 288.25 237.33 287.01 236.54 286.27 235.75 285.52 234.51 285.56 233.77 286.35 225.62 294.98 216.99 300.87 208.31 304.51 195.58 309.85 182.68 310.37 170.93 307.64 160.66 305.25 151.26 300.37 143.62 294.05L143.62 294.05Z" fill="#C4B5B7" fill-rule="evenodd" clip-rule="evenodd"/><path d="M357.11 282.38C336.09 273.17 314.14 276.92 308.08 290.75 302.02 304.58 314.15 323.26 335.17 332.46 356.19 341.67 378.14 337.92 384.2 324.09 390.25 310.27 378.12 291.59 357.11 282.38L357.11 282.38Z" fill="#FFB3BB" fill-rule="evenodd" clip-rule="evenodd"/><path d="M29.96 380.31C35.79 406.24 61.48 517.63 72.93 516.48 85.84 515.19 103.48 376.21 103.48 368.47 103.48 361.01 89.49 384.72 34.53 373.73 26.92 372.21 28.38 373.28 29.96 380.31L29.96 380.31Z" fill="#DEA042" fill-rule="evenodd" clip-rule="evenodd"/><path d="M35.65 404.92 36.59 408.86 37 408.48C48.49 398.03 57.35 386.25 63.52 376.67 62.16 376.69 60.76 376.68 59.32 376.64 53.57 385.35 45.67 395.62 35.65 404.92L35.65 404.92ZM42.39 432.34C42.71 433.62 43.04 434.9 43.37 436.18 60.78 420.96 82.77 398.59 95.26 373.81 96.14 372.06 97.01 370.44 97.86 368.93 96.43 369.63 94.68 370.46 92.57 371.3 92.41 371.61 92.26 371.9 92.1 372.21 80.16 395.9 59.32 417.39 42.39 432.34L42.39 432.34ZM47.5 451.85C47.82 453.03 48.14 454.21 48.46 455.39 48.93 455.11 49.4 454.84 49.88 454.56 68.09 444.1 84.8 427.21 98.33 410.64 98.66 408.3 98.98 406.02 99.29 403.81 85.39 421.52 67.62 440.3 48.13 451.48 47.91 451.61 47.71 451.73 47.5 451.85L47.5 451.85ZM55.29 478.97C55.65 480.14 56.02 481.3 56.38 482.44 67.09 475.9 79.56 467.26 90.98 456.78 91.33 454.85 91.67 452.91 92.01 450.96 80.17 462.46 66.75 471.91 55.29 478.97L55.29 478.97ZM62.28 499.54C62.72 500.68 63.16 501.78 63.59 502.82 70.43 499.63 77.33 495.21 84.12 490.02 84.55 488.26 84.98 486.43 85.41 484.55 77.78 490.71 69.98 495.93 62.28 499.54L62.28 499.54Z" fill="#C98622" fill-rule="evenodd" clip-rule="evenodd"/><path d="M37.07 410.85C37.53 412.76 38.01 414.72 38.49 416.72 52.17 428.37 71.08 443.64 90.91 457.06 91.14 455.81 91.36 454.55 91.58 453.29 70.53 438.91 50.58 422.52 37.07 410.85L37.07 410.85ZM45.82 445.55C46.37 447.61 46.92 449.68 47.48 451.74 64.04 465.66 83.53 473.43 86.77 474.67L87.38 475.46C87.65 474.13 87.93 472.79 88.2 471.43 85.56 470.43 62.92 461.61 45.82 445.55L45.82 445.55ZM54.05 474.93C54.6 476.76 55.16 478.57 55.71 480.34 60.02 483.91 70.27 491.61 82.71 495.52 83.01 494.41 83.31 493.27 83.6 492.1 67.99 487.16 55.97 475.89 55.93 475.86L55.72 475.66 54.05 474.93 54.05 474.93ZM64.39 504.73C65.08 506.33 65.76 507.78 66.42 509.08 72 510.65 76.03 510.21 78.07 509.76 78.6 508.51 79.13 507.12 79.67 505.58 78.89 505.83 78.41 505.98 78.4 505.98L78.24 506.03C78.22 506.05 73.19 508.21 64.39 504.73L64.39 504.73ZM94.2 437.87C94.4 436.62 94.6 435.37 94.8 434.13 82.6 424.79 69.25 414.02 57.48 403.37 45.56 392.58 35.35 381.97 29.78 373.17 28 373.44 28.74 375.17 29.71 379.22 35.78 387.45 44.83 396.69 55.11 405.99 67.33 417.05 81.38 428.24 94.2 437.87L94.2 437.87ZM98.71 407.91C98.89 406.65 99.06 405.41 99.23 404.19 78.48 393.06 65.42 383.73 57.23 376.58 55.48 376.5 53.67 376.39 51.79 376.23 60.14 384.14 74.42 394.93 98.71 407.91L98.71 407.91Z" fill="#C98622" fill-rule="evenodd" clip-rule="evenodd"/><path d="M82.96 301.8C106.48 301.8 125.54 320.87 125.54 344.39 125.54 367.9 106.47 386.97 82.96 386.97 59.44 386.97 40.38 367.9 40.38 344.39 40.38 320.87 59.44 301.8 82.96 301.8L82.96 301.8Z" fill="#B1EB6F" fill-rule="evenodd" clip-rule="evenodd"/><path d="M46.25 300.58C69.77 300.58 88.83 319.64 88.83 343.17 88.83 366.68 69.76 385.75 46.25 385.75 22.73 385.75 3.67 366.68 3.67 343.17 3.67 319.65 22.73 300.58 46.25 300.58L46.25 300.58Z" fill="#FE8CA6" fill-rule="evenodd" clip-rule="evenodd"/><path d="M45.95 277.59C49.78 276.49 53.92 279.24 55.21 283.72 56.5 288.2 54.44 292.74 50.61 293.83 46.78 294.93 42.64 292.18 41.35 287.69 40.07 283.22 42.12 278.68 45.95 277.59L45.95 277.59Z" fill="#F76F8F" fill-rule="evenodd" clip-rule="evenodd"/><path d="M55.16 254.51C58.34 254.51 60.92 257.74 60.92 261.72 60.92 265.7 58.34 268.93 55.16 268.93 51.98 268.93 49.4 265.7 49.4 261.72 49.4 257.74 51.98 254.51 55.16 254.51L55.16 254.51Z" fill="#91D149" fill-rule="evenodd" clip-rule="evenodd"/><path d="M84.69 253.66C88.08 254.98 89.49 259.48 87.85 263.73 86.21 267.97 82.12 270.35 78.73 269.03 75.34 267.72 73.93 263.21 75.57 258.97 77.22 254.72 81.3 252.34 84.69 253.66L84.69 253.66Z" fill="#F76F8F" fill-rule="evenodd" clip-rule="evenodd"/><path d="M66.67 285.79C69.31 285.44 71.8 287.81 72.23 291.07 72.67 294.34 70.88 297.27 68.25 297.62 65.61 297.97 63.12 295.61 62.69 292.34 62.25 289.07 64.04 286.14 66.67 285.79L66.67 285.79Z" fill="#F76F8F" fill-rule="evenodd" clip-rule="evenodd"/><path d="M71.71 271.65C73.85 272.45 74.78 275.25 73.79 277.9 72.8 280.56 70.26 282.06 68.12 281.26 65.98 280.46 65.05 277.66 66.04 275.01 67.03 272.35 69.57 270.85 71.71 271.65L71.71 271.65Z" fill="#91D149" fill-rule="evenodd" clip-rule="evenodd"/><path d="M106.95 352.12C109.09 352.92 110.02 355.73 109.03 358.37 108.04 361.03 105.49 362.53 103.35 361.73 101.21 360.93 100.28 358.12 101.27 355.47 102.27 352.82 104.81 351.32 106.95 352.12L106.95 352.12Z" fill="#FFD84C" fill-rule="evenodd" clip-rule="evenodd"/><path d="M93.05 280.5C95.19 281.3 96.12 284.11 95.13 286.76 94.14 289.41 91.59 290.92 89.45 290.11 87.31 289.31 86.38 286.51 87.37 283.86 88.37 281.21 90.91 279.71 93.05 280.5L93.05 280.5Z" fill="#FFB917" fill-rule="evenodd" clip-rule="evenodd"/><path d="M55.35 318.63C57.49 319.43 58.42 322.24 57.43 324.89 56.44 327.55 53.89 329.05 51.75 328.25 49.61 327.44 48.68 324.64 49.67 321.98 50.66 319.33 53.21 317.82 55.35 318.63L55.35 318.63Z" fill="#FFD84C" fill-rule="evenodd" clip-rule="evenodd"/><path d="M69.08 325.99C70.01 323.89 72.86 323.13 75.45 324.28 78.04 325.43 79.39 328.05 78.47 330.14 77.54 332.23 74.69 333 72.1 331.85 69.5 330.71 68.15 328.08 69.08 325.99L69.08 325.99Z" fill="#FFD84C" fill-rule="evenodd" clip-rule="evenodd"/><path d="M100.22 324.77C102.49 324.49 104.61 326.56 104.95 329.37 105.29 332.19 103.73 334.69 101.46 334.96 99.19 335.23 97.07 333.18 96.73 330.36 96.38 327.55 97.95 325.05 100.22 324.77L100.22 324.77Z" fill="#91D149" fill-rule="evenodd" clip-rule="evenodd"/><path d="M125.7 317.75C128.47 320.1 128.34 324.82 125.4 328.3 122.46 331.77 117.82 332.68 115.05 330.33 112.28 327.98 112.41 323.26 115.35 319.78 118.29 316.31 122.93 315.4 125.7 317.75L125.7 317.75Z" fill="#F76F8F" fill-rule="evenodd" clip-rule="evenodd"/><path d="M12.8 307.99C15.73 306.75 19.36 308.72 20.91 312.39 22.46 316.06 21.34 320.04 18.41 321.28 15.48 322.51 11.85 320.55 10.3 316.88 8.75 313.2 9.87 309.23 12.8 307.99L12.8 307.99Z" fill="#91D149" fill-rule="evenodd" clip-rule="evenodd"/><path d="M20.42 328.97C23.69 326.18 29.16 327.23 32.65 331.32 36.14 335.41 36.32 340.98 33.06 343.77 29.79 346.56 24.32 345.51 20.83 341.42 17.34 337.33 17.16 331.76 20.42 328.97L20.42 328.97Z" fill="#FFD84C" fill-rule="evenodd" clip-rule="evenodd"/><path d="M6.07 345.56C8.21 346.36 9.14 349.16 8.15 351.81 7.16 354.46 4.62 355.96 2.48 355.16 0.34 354.36-0.59 351.56 0.4 348.91 1.39 346.26 3.93 344.76 6.07 345.56L6.07 345.56Z" fill="#FFD84C" fill-rule="evenodd" clip-rule="evenodd"/><path d="M34.03 356.56C36.67 356.21 39.16 358.57 39.59 361.84 40.03 365.11 38.24 368.05 35.61 368.4 32.97 368.75 30.48 366.39 30.05 363.12 29.61 359.85 31.39 356.91 34.03 356.56L34.03 356.56Z" fill="#91D149" fill-rule="evenodd" clip-rule="evenodd"/><path d="M60.96 344.53C64.21 346.83 64.66 351.78 61.97 355.59 59.28 359.4 54.46 360.62 51.2 358.33 47.95 356.03 47.5 351.08 50.19 347.27 52.88 343.45 57.7 342.23 60.96 344.53L60.96 344.53Z" fill="#F76F8F" fill-rule="evenodd" clip-rule="evenodd"/><path d="M91.79 363.92C93.93 364.72 94.86 367.52 93.87 370.17 92.88 372.82 90.34 374.32 88.2 373.52 86.06 372.72 85.13 369.92 86.12 367.27 87.11 364.62 89.65 363.12 91.79 363.92L91.79 363.92Z" fill="#91D149" fill-rule="evenodd" clip-rule="evenodd"/><path d="M111.8 337.38C113.94 338.18 114.87 340.98 113.88 343.64 112.89 346.3 110.34 347.8 108.2 347 106.06 346.2 105.13 343.39 106.12 340.74 107.11 338.08 109.65 336.57 111.8 337.38L111.8 337.38Z" fill="#91D149" fill-rule="evenodd" clip-rule="evenodd"/><path d="M130.3 346.48C133.13 348.48 133.52 352.78 131.18 356.09 128.84 359.4 124.65 360.47 121.82 358.47 118.99 356.47 118.6 352.17 120.94 348.85 123.29 345.54 127.48 344.48 130.3 346.48L130.3 346.48Z" fill="#F76F8F" fill-rule="evenodd" clip-rule="evenodd"/><path d="M27.59 419.5C29.19 426.3 40.04 426.33 46.68 423.68 55.39 420.22 58.08 408.7 44.49 407.73 36.04 407.12 25.42 410.25 27.59 419.5L27.59 419.5Z" fill="#E2D9DA" fill-rule="evenodd" clip-rule="evenodd"/><path d="M34.61 458.66C37.08 464.94 47.78 463.3 53.99 459.74 62.13 455.08 63.28 443.6 49.74 444.77 41.32 445.48 31.25 450.11 34.61 458.66L34.61 458.66Z" fill="#E2D9DA" fill-rule="evenodd" clip-rule="evenodd"/><path d="M31.72 440.13C33.37 447.08 44.52 446.83 51.36 443.94 60.32 440.16 63.09 428.26 49.11 427.61 40.4 427.21 29.48 430.69 31.72 440.13L31.72 440.13Z" fill="#E2D9DA" fill-rule="evenodd" clip-rule="evenodd"/><path d="M489.71 635.19C489.75 634.83 490.09 634.57 490.45 634.62 490.81 634.66 491.07 635 491.03 635.36 489.9 644.41 490.76 645.78 491.17 647.36 488.73 644.78 489.52 636.71 489.71 635.19L489.71 635.19Z" fill="#C9BBBD" fill-rule="evenodd" clip-rule="evenodd"/><path d="M254.83 581.19C254.83 581.19 242.21 543.31 271.34 512.24 300.48 481.16 344.67 474.85 370.16 497.43 395.65 520.01 399.05 576.82 399.05 576.82L362.8 590.91C362.8 590.91 349.52 556.91 345.15 554.72 340.78 552.55 294.16 536.27 254.83 581.19L254.83 581.19Z" fill="#FE8CA6" fill-rule="evenodd" clip-rule="evenodd"/><path d="M257.02 584.83C257.02 512.43 338.46 474.25 369.92 523.16 396.63 564.68 390.38 579.91 390.38 579.91L377.93 597.7C377.93 597.7 354.62 571.96 341.51 563.46 328.4 554.97 276.6 571.79 269.88 589.69 263.17 607.59 257.02 584.83 257.02 584.83L257.02 584.83Z" fill="#FF96AF" fill-rule="evenodd" clip-rule="evenodd"/><path d="M264.54 582.17C264.54 582.17 269.88 553.28 294.16 536.27 318.44 519.28 370.73 526.27 379.17 571.5 387.61 616.73 390.55 578.04 390.55 578.04L365.3 595.52C365.3 595.52 357.04 578.77 345.15 567.84 333.25 556.92 305.33 555.94 289.55 579.01 273.77 602.07 263.09 592.12 264.54 582.17L264.54 582.17Z" fill="#FFA3B8" fill-rule="evenodd" clip-rule="evenodd"/><path d="M292.71 592.36C292.71 592.36 308.25 559.83 331.07 567.84 353.89 575.85 349.77 589.45 349.77 589.45L368.95 586.05C352.11 526.83 302.59 541.5 276.93 586.05 265.76 602.07 292.71 592.36 292.71 592.36L292.71 592.36Z" fill="#FCBBCA" fill-rule="evenodd" clip-rule="evenodd"/><path d="M258.82 576.43C258.82 576.43 257.86 555.66 246.26 555.89 234.66 556.13 242.39 581.98 242.39 581.98 242.39 581.98 228.38 566.52 223.31 581.98 218.24 597.44 241.67 595.75 241.67 595.75 241.67 595.75 222.34 613.39 239.74 621.11 257.13 628.84 263.17 607.58 263.17 607.58 263.17 607.58 268.97 624 280.56 619.41 292.16 614.82 287.81 604.92 287.81 604.92 287.81 604.92 303.51 610.23 304.72 597.67 305.93 585.11 284.67 590.66 284.67 590.66 284.67 590.66 298.92 578.58 293.13 569.41 287.33 560.24 270.66 555.89 258.82 576.43L258.82 576.43Z" fill="#FAFBFF"/><path d="M377.51 576.12C377.51 576.12 379.98 558.35 365.41 560.82 350.84 563.29 356.28 582.3 356.28 582.3 356.28 582.3 340.23 578.35 337.52 592.42 334.81 606.5 354.31 602.54 354.31 602.54 354.31 602.54 344.43 611.43 354.8 616.86 365.17 622.29 377.51 604.76 377.51 604.76 377.51 604.76 386.4 625.74 402.69 615.86 418.98 605.99 407.38 596.36 407.38 596.36 407.38 596.36 424.66 594.88 419.48 583.77 414.3 572.66 400.72 580.81 400.72 580.81 400.72 580.81 416.27 563.53 404.18 559.08 392.07 554.64 382.94 558.84 377.51 576.12L377.51 576.12Z" fill="#FAFBFF"/><path d="M403.37 405.65 403.39 405.67 403.29 405.78 403.37 405.65Z" fill="#FFD84C" fill-rule="evenodd" clip-rule="evenodd"/><path d="M243.44 380.96C240.15 389.97 236.84 398.99 233.53 408.03 269.57 444.33 379.64 436 404.92 403.82 401.72 393.31 398.73 383.98 396.06 376.23 378.56 364.08 346.23 354.2 314.75 353.75 278.75 364.3 243.44 380.96 243.44 380.96L243.44 380.96Z" fill="#D9CCCE" fill-rule="evenodd" clip-rule="evenodd"/><path d="M233.63 399.85C251.35 408.87 271.71 415.52 295.15 418.96 336.68 425.05 377.66 416.33 409.23 393.36 406.77 360.36 257.09 320.87 233.63 399.85L233.63 399.85Z" fill="#E2D9DA" fill-rule="evenodd" clip-rule="evenodd"/></g></svg>