<svg width="783.7" height="546.33" viewBox="0 0 783.7 546.33" xmlns="http://www.w3.org/2000/svg" xmlns:xlink="http://www.w3.org/1999/xlink" overflow="hidden"><defs></defs><g><g><path d="M613.77 378.03C616.19 385.05 622.71 390.06 629.75 392.39 636.8 394.72 644.38 394.74 651.8 394.42 672.52 393.53 695.25 388.96 707.83 372.48 712.44 366.44 715.42 359.08 721.11 354.06 726.81 349.04 736.96 347.67 741.22 353.95 742.9 356.44 743.29 359.57 743.37 362.57 743.97 384.11 731.26 404.52 713.95 417.35 696.64 430.19 675.26 436.38 653.97 439.72 637.48 442.31 620.19 443.27 604.47 437.67L613.77 378.03Z" fill="#6D9282"/><path d="M214.55 366.95C172.55 376.45 133.23 397.51 102.05 427.2 92.35 436.43 82.92 450.91 90.23 462.13 94.5 468.68 103.27 471.05 111.02 470 118.77 468.95 125.83 465.14 132.8 461.59 178.44 438.39 228.7 424.31 279.75 420.42L214.55 366.95Z" fill="#6D9282"/><path d="M556.44 369.21C561.67 376.21 573.67 373.73 578.87 366.71 584.08 359.69 584.42 350.31 584.51 341.57 584.87 305.53 584.4 269.1 592.39 233.96 600.38 198.81 617.9 164.41 647.44 143.75 676.97 123.09 719.81 119.4 748.5 141.21 759.4 149.49 767.7 160.78 774.34 172.76 783.45 189.19 788.96 211.55 776.22 225.35 765.51 236.95 747.48 236.52 731.7 236.36 705.33 236.08 676.3 240.21 658.72 259.88 640.42 280.35 640.34 310.66 632.83 337.07 627.66 355.26 618.54 372.31 606.28 386.7L556.44 369.21Z" fill="#6D9282"/><path d="M764.82 490.7C735.3 521.96 694.25 514.91 656.23 515.26 636.51 515.44 617.45 521.89 598.72 528.06 579.98 534.23 560.73 540.27 541.01 539.59 525.86 539.07 510.34 533.98 499.13 523.52 498.92 523.33 498.71 523.13 498.51 522.92 490.39 514.89 487.84 503.09 480.4 495.11 480.21 494.91 480.03 494.72 479.84 494.52 469.39 483.94 456.5 485.97 442.53 484.52 424.88 482.69 408.1 476.81 390.53 474.72 322.97 466.68 257.32 489.01 205.78 532.36 197.79 539.08 189 546.56 178.57 546.33 164.51 546.02 154.36 530.51 155.73 516.51 157.09 502.51 166.94 490.71 178.13 482.19 191.89 471.72 211.07 462.49 215.45 444.23 218.75 430.45 211.68 416.55 205.06 404.02 194.4 383.81 192.2 359.31 196.01 336.66L257.34 293.18C321.88 338.43 406 343.36 484.71 339.26 516.17 337.62 548.73 334.94 578.29 345.85 625.21 363.15 619.49 403.55 644.76 437.27 664.7 463.87 709.25 484.47 737.97 458.73 742.21 454.93 745.69 450.29 750.26 446.89 754.83 443.48 761.05 441.45 766.24 443.79 769.43 445.23 771.76 448.12 773.35 451.23 779.87 464.01 774.67 480.26 764.82 490.7Z" fill="#A3C2B2"/><path d="M158.9 346.33C159.9 337.31 165.88 327.19 178.94 316.65 205.64 295.09 238.99 286.77 267.79 273.05 283.58 265.53 300.15 258.12 316.48 259.95 319.39 260.28 322.49 261.05 324.3 263.67 326.15 266.35 326.2 270.31 325.82 273.94 323.54 296.07 309.35 314.6 295.12 329.99 273.8 353.06 249.44 374.07 222.03 380.83 192.41 388.12 156.11 371.57 158.9 346.33Z" fill="#EC6A8B"/><path d="M307.48 110.27C332.7 87.85 367.07 76.05 400.74 78.24 403.62 78.43 406.78 78.85 408.7 81.01 411.41 84.05 410.27 88.78 408.97 92.64 395.4 133.06 380.2 175.85 346.64 202.15L307.48 110.27Z" fill="#6D9282"/><path d="M185.86 91.21C184.26 63.74 182.67 36.28 181.07 8.81 180.86 5.14 179.73 0.44 176.08 0.02 174.42-0.17 172.83 0.7 171.41 1.58 147.06 16.5 130.09 41.37 119.56 67.92 109.02 94.46 104.31 122.9 99.66 151.07L185.86 91.21Z" fill="#6D9282"/><path d="M118.6 327.52C85.76 305.34 61.12 272.94 40.64 239.01 32.79 226 25.31 212.23 23.59 197.14 17.9 147.18 71.15 96.05 110.72 75.49 145.47 57.43 185.3 50.27 224.44 51.55 250.04 52.39 275.74 56.8 299.27 66.93 346.13 87.11 381.81 129.91 396.76 178.7 404.11 202.7 406.7 228.79 399.7 252.89 384.63 304.75 325.81 338.16 275.53 347.62 222.95 357.52 164.33 358.41 118.6 327.52Z" fill="#A3C2B2"/><path d="M157.33 139.18C157.61 140.85 157.69 141.85 158.52 143.43 159.17 144.67 160.02 145.71 160.91 146.78 163.02 149.34 165.13 151.51 168.08 153.11 173.79 156.21 181.04 156.51 187.02 154.02 191.65 152.09 189.37 144.96 184.49 146.56 179.99 148.04 175.34 147.63 170.89 146.12 168.91 145.45 166.62 144.57 164.92 143.31 163.92 142.57 163.05 141.53 162.25 140.59 161.56 139.79 160.68 139.04 160.05 138.26 159.23 137.25 157.06 137.55 157.33 139.18L157.33 139.18Z" fill="#020202"/><path d="M142.24 181.05C138.61 192.87 139.44 206 144.53 217.27 146.06 220.66 148.19 224.09 151.63 225.51 157.3 227.86 163.6 223.7 167.43 218.91 172.88 212.09 176.07 203.49 176.38 194.76 167.11 189.9 162.18 178.02 165.3 168.03 163.04 174.04 160.61 180.3 155.81 184.56 151 188.82 143.05 190.27 138.28 185.97 144.89 183.23 135.6 183.78 142.24 181.05Z" fill="#F29B9E"/><path d="M199.39 195.66C192.98 197.8 186.28 197.38 180.58 193.53 174.6 189.49 171.56 182.87 170.96 175.82 170.63 171.89 170.94 168.02 171.74 164.16 172.13 162.27 172.63 160.4 173.21 158.55 173.74 156.87 174.6 155.19 174.9 153.45 175.52 149.78 171.8 145.59 168.15 148.2 165.06 150.41 165.92 156.7 170.51 155.92 174.96 155.16 174.72 148.28 170.03 148.75 169.93 148.76 169.83 148.77 169.73 148.78 170.81 149.32 171.89 149.85 172.98 150.39 169.88 150.09 168.04 150.97 167.48 153.04 167.34 153.45 167.19 153.86 167.05 154.27 166.73 155.2 166.42 156.14 166.13 157.08 165.65 158.67 165.24 160.27 164.9 161.89 164.16 165.41 163.77 169.03 163.79 172.63 163.83 179.3 165.7 186.53 169.94 191.8 176.41 199.85 192.1 206.26 200.13 196.76 200.57 196.26 200.06 195.44 199.39 195.66L199.39 195.66Z" fill="#020202"/><path d="M126.77 174.58C125.7 186.66 140.58 192.74 150.45 189.06 164.27 183.9 172.59 166.57 171.87 152.43 171.65 148.18 164.61 147.44 164.18 151.91 163.55 158.43 162.79 164.46 159.91 170.46 157.7 175.07 154.42 179.41 150.07 182.17 142.12 187.22 129.98 184.57 127.59 174.54 127.48 174.14 126.8 174.17 126.77 174.58L126.77 174.58Z" fill="#020202"/><path d="M276.56 153C274.23 153.66 272.39 154.41 270.73 156.21 269.18 157.89 268 159.89 267.22 162.04 265.58 166.53 265.65 171.63 267.75 175.96 268.45 177.41 270.46 178.75 272.03 177.43 278.35 172.08 281.33 164.27 281.1 156.06 281.03 153.74 278.46 152.1 276.32 152.87 265.54 156.76 263.12 171.06 270.38 179.24 271.95 181.01 274.65 180.26 276.14 178.93 279.95 175.52 282.42 171.03 283.51 166.05 284.14 163.17 281.77 161.16 279.15 161.05 273.48 160.8 268.85 165.54 268.66 171.04 268.49 175.84 275.65 175.84 276.74 171.59 277.16 169.97 278.03 169.31 279.7 169.38 278.25 167.71 276.79 166.05 275.34 164.38 274.56 168 272.76 170.96 270.07 173.49 271.99 173.39 273.91 173.28 275.83 173.18 272.32 169.41 274.11 161.95 278.64 159.74 277.05 158.68 275.46 157.61 273.86 156.55 274.72 162.81 272.48 168.5 268.32 173.15 269.82 173.26 271.33 173.37 272.83 173.49 268.72 167.36 271.78 158.76 277.28 154.51 278.05 153.92 277.51 152.73 276.56 153L276.56 153Z" fill="#020202"/><path d="M99.64 126.84C103.28 124.11 97.89 119.63 94.59 122.52 92.52 124.34 91.65 127.59 91.19 130.2 90.58 133.61 90.83 136.97 91.65 140.31 92.05 141.94 94.09 142.73 95.57 142.25 104.02 139.46 108.57 129.31 105.29 121.08 104.57 119.29 102.74 118.3 100.85 118.89 97.15 120.03 94.41 122.96 93.23 126.62 92 130.46 92.56 135.52 96.87 136.96 100.63 138.21 106.35 136.29 106.53 131.73 106.7 127.32 102.2 123.93 98.04 125.46 94.37 126.81 95.24 133.2 99.44 132.49 99.5 132.48 99.71 129.99 99.63 129.91 99.69 129.97 98.59 129.59 98.61 129.6 99.22 130.3 99.83 131.01 100.43 131.71 99.45 129.24 100.48 126.43 103.09 125.52 101.61 124.79 100.13 124.06 98.65 123.33 100.82 128.24 98.64 134.28 93.58 136.4 94.89 137.05 96.19 137.69 97.5 138.34 96.16 134.26 95.67 127.93 99.06 124.71 98.62 124.92 98.19 125.14 97.75 125.35 97.79 125.17 97.83 124.98 97.88 124.8 97.08 125.95 98.28 127.86 99.64 126.84L99.64 126.84Z" fill="#020202"/><path d="M512.77 437.04C518.49 430.28 524.99 424.2 531.98 418.76 532.67 418.22 531.98 417.12 531.21 417.61 517.07 426.62 505.18 438.92 496.08 452.95 491.54 459.95 487.62 467.46 484.76 475.29 482.46 481.59 480.59 488.34 480.41 495.11 483.93 498.88 486.35 503.51 488.79 508.18 489.01 507.99 489.23 507.81 489.46 507.64 485.46 498.38 487.65 486.18 490.66 476.9 495.38 462.33 502.88 448.75 512.77 437.04Z" fill="#6D9282"/></g><path d="M252.48 205.65C254.72 209.39 260.05 210.33 263.96 211.64 269.82 213.6 275.7 215.47 281.57 217.36 293.01 221.04 304.43 224.81 315.94 228.28 323.83 230.65 327.12 218.47 319.33 215.99 307.87 212.34 296.2 209.44 284.44 206.97 278.69 205.76 272.94 204.69 267.14 203.75 262.83 203.05 256.84 201.2 252.97 203.73 252.35 204.14 252.07 204.97 252.48 205.65L252.48 205.65Z" fill="#6D9282"/><path d="M243.59 224.5C246.43 228.91 251.18 232.37 255.06 235.87 259.26 239.66 263.76 243.08 268.27 246.5 277.67 253.63 287.67 259.91 297.96 265.67 304.13 269.13 309.55 259.84 303.5 256.2 293.68 250.29 283.98 244.19 274.17 238.26 269.41 235.38 264.74 232.37 259.94 229.57 255.39 226.92 250.82 223.29 245.83 221.61 244.2 221.07 242.68 223.09 243.59 224.5L243.59 224.5Z" fill="#6D9282"/><path d="M75.84 154.95C72.89 151.25 67.82 149.13 63.63 147.08 58.54 144.59 53.46 142.09 48.36 139.64 43.52 137.31 38.62 135.1 33.79 132.75 28.76 130.3 23.77 127.41 18.36 125.9 11.15 123.89 7.78 133.5 13.48 137.47 18.06 140.66 23.63 142.53 28.78 144.62 34.04 146.76 39.31 148.94 44.67 150.8 49.73 152.56 54.85 154.2 59.99 155.7 64.7 157.08 70.15 158.84 75.07 157.84 76.48 157.57 76.58 155.88 75.84 154.95L75.84 154.95Z" fill="#6D9282"/><path d="M58.59 177.3C55.58 175.58 51.78 175.87 48.36 175.68 43.93 175.44 39.5 175.32 35.07 175.02 26.15 174.43 17.27 173.12 8.56 171.1-0.12 169.08-3.64 182.85 4.92 184.3 14.63 185.95 24.27 186.76 34.12 186.21 38.65 185.95 43.21 185.35 47.65 184.4 51.45 183.59 56.23 182.79 58.91 179.81 59.58 179.05 59.52 177.83 58.59 177.3L58.59 177.3Z" fill="#6D9282"/></g></svg>