<svg width="97.73" height="82" viewBox="0 0 97.73 82" xmlns="http://www.w3.org/2000/svg" xmlns:xlink="http://www.w3.org/1999/xlink" overflow="hidden"><defs></defs><g><g><g><path d="M97.07 47.47C96.84 47.23 96.6 47.04 96.34 46.85 96.19 46.72 96.03 46.58 95.88 46.45 95.83 46.41 95.78 46.36 95.73 46.32 95.04 45.73 94.35 45.13 93.67 44.52 93.49 44.33 93.3 44.14 93.11 43.97 93.05 43.92 92.99 43.89 92.93 43.87 86.38 38.05 80.18 31.82 74 25.62 70.29 21.9 66.73 18.04 63.29 14.08 60.8 11.22 58.35 8.15 55.66 5.39 55.56 5.26 55.45 5.13 55.35 5.01 55.1 4.75 54.84 4.48 54.59 4.21 54.29 3.93 54 3.64 53.72 3.34 53.34 2.95 52.96 2.56 52.58 2.17 52.52 2.12 52.47 2.06 52.41 2.01 52.4 2 52.39 2 52.38 2 52.35 1.97 52.32 1.94 52.29 1.91 52.19 1.82 52.08 1.73 51.98 1.63 51.88 1.37 51.75 1.14 51.6 0.93 51.57 0.93 51.54 0.92 51.51 0.89 51.06 0.43 50.44 0.08 49.78 0 49.63 0 49.48 0.02 49.33 0.04 49.31 0.06 49.29 0.08 49.27 0.1 48.3 0.29 47.59 1.05 47.23 1.98 44.31 4.57 41.34 7.09 38.45 9.71 34 13.74 29.61 17.83 25.17 21.87 20.86 25.8 16.88 30.07 12.65 34.08 9.1 37.44 5.55 40.88 2.42 44.64 2.37 44.66 2.32 44.69 2.29 44.73 2.1 45 1.91 45.25 1.73 45.49 1.57 45.69 1.4 45.89 1.25 46.09 1.21 46.14 1.18 46.2 1.17 46.25 0.66 46.95 0.24 47.66 0.05 48.63-0.2 49.91 0.63 50.99 1.7 51.56 2.63 52.06 4.11 51.95 4.89 51.2 5.13 50.97 5.14 50.98 5.32 50.73 5.45 50.57 5.77 50.16 5.9 50 5.94 49.95 5.99 49.9 6.03 49.85 6.62 49.16 7.22 48.47 7.82 47.79 8.01 47.61 8.2 47.42 8.37 47.23 8.42 47.17 8.45 47.11 8.47 47.05 8.94 46.51 9.43 45.99 9.91 45.45 10.05 51.54 10.85 57.66 11.18 63.75 11.36 67.07 11.6 70.39 11.94 73.69 12.08 75.1 12.3 76.51 12.48 77.92 12.62 78.96 12.53 79.97 12.9 80.96 12.96 81.12 13.06 81.18 13.18 81.18 13.2 81.19 13.22 81.21 13.26 81.21 15.76 81.73 18.47 81.58 21.02 81.61 24.19 81.66 27.36 81.68 30.53 81.7 36.9 81.75 43.27 81.79 49.64 81.83 61.79 81.9 73.96 82.14 86.12 81.84 86.27 81.84 86.4 81.74 86.5 81.61 86.52 81.39 86.53 81.17 86.55 80.95 86.52 80.93 86.5 80.91 86.46 80.9 86.46 80.89 86.46 80.88 86.46 80.86 86.47 80.83 86.48 80.8 86.49 80.77 86.54 80.51 86.59 80.25 86.62 79.98 86.65 79.83 86.68 79.68 86.71 79.53 86.8 78.09 86.9 76.65 87.15 75.23 87.18 74.73 87.22 74.25 87.26 73.8 87.58 70.87 87.68 67.93 88.05 65 88.43 61.93 88.69 58.85 89.05 55.79 89.31 53.57 89.73 51.33 89.55 49.1 89.87 49.38 90.19 49.65 90.51 49.92 90.53 49.97 90.56 50.02 90.6 50.05 90.86 50.23 91.11 50.42 91.35 50.6 91.55 50.76 91.75 50.93 91.95 51.09 92 51.13 92.06 51.16 92.11 51.17 92.81 51.68 93.53 52.1 94.49 52.29 95.77 52.54 96.85 51.71 97.42 50.64 97.92 49.73 97.81 48.25 97.07 47.47Z"/><path d="M87.02 64.3C86.69 67 86.48 69.7 86.26 72.41 86.19 73.28 86.15 74.26 86.09 75.27 86.09 75.28 86.08 75.29 86.08 75.3 86.07 75.34 86.07 75.39 86.06 75.43 86 77.15 85.88 78.86 85.68 80.57 85.66 80.7 85.54 80.74 85.42 80.73 85.42 80.78 85.42 80.83 85.42 80.87 74.14 80.49 62.85 80.58 51.57 80.52 45.2 80.49 38.82 80.46 32.45 80.44 29.27 80.43 26.1 80.42 22.92 80.42 19.94 80.42 16.81 80.22 13.85 80.67 13.85 80.66 13.85 80.64 13.84 80.63 13.84 80.62 13.83 80.61 13.83 80.6 13.84 80.53 13.84 80.46 13.82 80.4 13.48 79.29 13.56 78.04 13.42 76.89 13.23 75.43 13.04 73.97 12.89 72.51 12.6 69.48 12.4 66.43 12.22 63.39 11.86 57.2 11.59 50.98 10.41 44.9 15.66 39.14 21.21 33.62 26.73 28.12 30.45 24.41 34.31 20.85 38.27 17.41 41.93 14.23 45.91 11.11 49.15 7.48 49.22 7.48 49.31 7.45 49.36 7.38 49.42 7.29 49.49 7.22 49.56 7.14 49.57 7.13 49.59 7.11 49.6 7.1 51.59 9.38 53.56 11.66 55.58 13.9 59.61 18.35 63.7 22.74 67.74 27.18 71.66 31.49 75.94 35.47 79.95 39.71 82.83 42.75 85.77 45.79 88.92 48.58 88.41 53.82 87.66 59.07 87.02 64.3Z" fill="#3E2D00"/><g><path d="M23.25 80.42C23.3 79.38 23.31 78.34 23.31 77.3 23.29 66.78 22.34 56.25 21.48 45.77 21.17 41.96 20.84 38.15 20.49 34.34 17.07 37.8 13.68 41.29 10.4 44.89 11.58 50.97 11.85 57.19 12.21 63.38 12.39 66.42 12.59 69.47 12.88 72.5 13.02 73.96 13.22 75.42 13.41 76.88 13.55 78.03 13.47 79.27 13.81 80.39 13.83 80.46 13.83 80.53 13.82 80.59 13.82 80.6 13.83 80.61 13.83 80.62 13.83 80.63 13.83 80.65 13.84 80.66 16.8 80.2 19.93 80.41 22.91 80.41 23.03 80.42 23.14 80.42 23.25 80.42Z" fill="#AA800D"/><path d="M33.76 77.32C33.41 66.49 32.82 55.66 32.23 44.84 31.93 39.46 31.62 34.08 31.46 28.69 31.41 27.01 31.37 25.34 31.35 23.66 29.79 25.12 28.25 26.6 26.74 28.11 24.76 30.08 22.78 32.06 20.81 34.05 21.75 44.37 22.61 54.71 23.21 65.06 23.47 69.54 23.71 74.04 23.65 78.53 23.64 79.16 23.63 79.79 23.6 80.42 26.56 80.42 29.51 80.43 32.46 80.44 32.92 80.44 33.39 80.45 33.85 80.45 33.82 79.4 33.79 78.36 33.76 77.32Z" fill="#AA800D"/><path d="M56.9 76.96C57.07 72.71 56.94 68.44 56.88 64.18 56.72 53.42 57.1 42.68 56.88 31.92 56.77 26.3 56.62 20.68 56.65 15.05 56.3 14.66 55.94 14.28 55.59 13.89 53.56 11.65 51.59 9.37 49.61 7.09 49.6 7.1 49.58 7.12 49.57 7.13 49.5 7.21 49.43 7.28 49.37 7.37 49.32 7.44 49.23 7.47 49.16 7.47 47.09 9.78 44.72 11.89 42.33 13.94 42.33 14.05 42.32 14.16 42.31 14.27 42.14 18.28 42.23 22.3 42.38 26.3 42.57 31.67 42.89 37.02 43.14 42.39 43.39 47.77 43.44 53.17 43.61 58.56 43.84 65.87 44.07 73.18 44.18 80.49 46.65 80.5 49.11 80.51 51.58 80.52 53.3 80.53 55.02 80.53 56.75 80.54 56.79 79.35 56.86 78.16 56.9 76.96Z" fill="#AA800D"/><path d="M68.64 76.66C69.41 65.95 70.66 55.27 71.35 44.55 71.63 40.25 71.79 35.93 71.98 31.63 70.54 30.17 69.12 28.7 67.74 27.19 64.16 23.26 60.54 19.35 56.96 15.42 56.95 18.57 56.99 21.71 57.05 24.86 57.15 30.23 57.31 35.6 57.31 40.96 57.31 46.33 57.08 51.7 57.11 57.07 57.14 62.48 57.29 67.9 57.28 73.31 57.28 75.71 57.12 78.12 57.02 80.54 60.81 80.55 64.59 80.55 68.38 80.58 68.47 79.27 68.55 77.96 68.64 76.66Z" fill="#AA800D"/><path d="M82.26 42.12C81.57 49.5 81.01 56.91 80.77 64.31 80.59 69.79 79.96 75.25 79.43 80.71 81.43 80.75 83.42 80.8 85.42 80.87 85.42 80.82 85.42 80.77 85.42 80.73 85.54 80.75 85.66 80.7 85.68 80.57 85.87 78.86 86 77.15 86.06 75.43 86.07 75.39 86.08 75.35 86.08 75.3 86.08 75.29 86.09 75.28 86.09 75.27 86.15 74.27 86.19 73.28 86.26 72.41 86.48 69.7 86.68 67 87.02 64.3 87.67 59.06 88.41 53.82 88.94 48.57 86.61 46.53 84.41 44.34 82.26 42.12Z" fill="#AA800D"/><path d="M79.82 74.03C80.28 69.04 80.47 64.05 80.74 59.05 81.05 53.31 81.49 47.59 82.02 41.86 81.33 41.15 80.65 40.43 79.97 39.71 77.47 37.07 74.87 34.53 72.31 31.95 72.16 35.4 72.02 38.86 71.82 42.31 71.51 47.68 71.07 53.03 70.58 58.38 69.9 65.77 69.14 73.17 68.72 80.58 72.2 80.6 75.69 80.64 79.17 80.71 79.38 78.48 79.61 76.25 79.82 74.03Z" fill="#AA800D"/><path d="M43.57 66.06C43.25 55.28 42.97 44.5 42.43 33.72 42.16 28.36 41.93 22.99 41.95 17.63 41.96 16.47 42 15.32 42.05 14.16 40.78 15.25 39.5 16.32 38.26 17.4 36.01 19.36 33.8 21.36 31.62 23.39 31.63 24.85 31.66 26.31 31.7 27.78 32.01 38.65 32.78 49.51 33.33 60.37 33.67 67.06 33.94 73.75 34.12 80.45 37.38 80.46 40.64 80.48 43.9 80.49 43.84 75.68 43.72 70.87 43.57 66.06Z" fill="#AA800D"/></g><g opacity="0.3"><path d="M48 12.02C48.18 12.74 49.26 15.87 50.27 14.12 51.05 12.77 51.2 10.94 51.31 9.41 51.32 9.3 51.32 9.18 51.33 9.07 50.76 8.41 50.19 7.76 49.62 7.1 49.61 7.11 49.59 7.13 49.58 7.14 49.51 7.22 49.44 7.29 49.38 7.38 49.33 7.45 49.24 7.48 49.17 7.48 48.65 8.06 48.11 8.63 47.55 9.19 47.61 10.14 47.77 11.1 48 12.02Z" fill="#AA800D"/><g><path d="M12.45 57.16C12.71 54.46 12.43 51.93 11.61 49.36 11.33 48.48 11.03 47.61 10.74 46.74 11.47 51.19 11.78 55.7 12.04 60.21 12.21 59.19 12.36 58.18 12.45 57.16Z" fill="#AA800D"/><path d="M12.98 73.31C13.02 72.93 13.05 72.55 13.1 72.17 13.52 68.54 14.37 64.97 14.79 61.34 15.51 55.08 13.9 49.01 12.12 43.05 11.57 43.64 11.03 44.23 10.48 44.82 10.95 46.39 11.52 47.92 12 49.5 12.7 51.82 13.02 54.11 12.82 56.53 12.68 58.17 12.4 59.81 12.12 61.44 12.16 62.09 12.19 62.74 12.23 63.39 12.41 66.43 12.61 69.48 12.9 72.51 12.92 72.78 12.95 73.05 12.98 73.31Z" fill="#AA800D"/><path d="M19.17 71.96C19.21 71.86 19.39 71.78 19.46 71.9 20.86 74.43 20.75 77.51 20.84 80.4 21.04 80.4 21.25 80.41 21.45 80.41 21.28 76.69 20.91 72.99 20.66 69.27 20.55 67.62 20.46 65.95 20.11 64.33 19.94 63.57 19.74 62.78 19.37 62.09 19.3 61.96 18.86 61.16 18.76 61.27 18.58 61.48 18.42 61.7 18.3 61.95 17.04 64.57 17.51 67.91 17.52 70.73 17.53 72.62 17.39 74.51 17.44 76.4 17.48 77.73 17.55 79.06 17.62 80.39 17.98 80.38 18.34 80.39 18.69 80.39 18.27 77.55 18.06 74.53 19.17 71.96Z" fill="#AA800D" opacity="0.4"/><path d="M19.33 72.36C18.39 74.84 18.61 77.7 19.02 80.38 19.53 80.38 20.03 80.38 20.54 80.39 20.45 77.67 20.53 74.78 19.33 72.36Z" fill="#AA800D"/><path d="M16.32 38.63C16.72 39.73 17.17 40.81 17.68 41.85 18.21 42.93 18.75 44.03 19.35 45.07 19.93 46.08 20.62 47.31 21.65 47.92 21.59 47.21 21.53 46.5 21.48 45.78 21.33 43.95 21.18 42.13 21.02 40.3 20.53 38.59 20.05 36.88 19.72 35.14 18.58 36.3 17.45 37.46 16.32 38.63Z" fill="#AA800D"/><path d="M20.87 38.56C20.75 37.16 20.63 35.75 20.5 34.35 20.33 34.52 20.17 34.69 20 34.86 20.23 36.1 20.54 37.33 20.87 38.56Z" fill="#AA800D"/><path d="M19.61 46.08C18.87 44.93 18.25 43.69 17.64 42.47 17.06 41.3 16.54 40.1 16.08 38.88 15.51 39.48 14.93 40.07 14.35 40.68 14.59 41.44 14.9 42.19 15.28 42.89 16.2 44.58 17.52 45.95 18.67 47.48 20.01 49.26 21.12 51.12 22.07 53.08 21.94 51.47 21.81 49.86 21.68 48.25 20.8 47.8 20.13 46.88 19.61 46.08Z" fill="#AA800D"/><path d="M17.76 46.81C16.55 45.31 15.32 43.89 14.56 42.09 14.4 41.7 14.25 41.31 14.13 40.92 13.54 41.54 12.96 42.15 12.38 42.78 14.14 48.59 15.82 54.6 15.17 60.69 14.77 64.43 13.88 68.09 13.45 71.82 13.33 72.86 13.24 73.91 13.18 74.96 13.26 75.6 13.34 76.25 13.43 76.89 13.57 78.04 13.49 79.28 13.83 80.4 13.85 80.47 13.85 80.54 13.84 80.6 13.84 80.61 13.85 80.62 13.85 80.63 13.85 80.64 13.85 80.66 13.86 80.67 14.07 80.64 14.27 80.61 14.48 80.59 14.42 77.66 14.81 74.73 15.14 71.82 15.42 69.31 15.51 66.79 15.83 64.28 16.1 62.23 16.51 60.22 16.98 58.2 17.3 56.8 17.62 54.83 18.87 53.92 20.19 52.96 20.63 54.46 21 55.53 21.99 58.39 22.53 61.43 22.91 64.49 22.71 60.98 22.45 57.48 22.17 53.98 20.98 51.44 19.56 49.05 17.76 46.81Z" fill="#AA800D" opacity="0.4"/><path d="M22.69 65.82C22.38 63.33 22.05 60.82 21.48 58.38 21.2 57.19 20.86 56.01 20.42 54.87 20.23 54.38 19.94 53.51 19.26 54.01 18.86 54.3 18.54 54.63 18.31 55.07 17.51 56.63 17.29 58.4 16.87 60.08 16.25 62.56 15.96 65.19 15.81 67.74 15.56 72 14.69 76.26 14.77 80.54 15.6 80.45 16.44 80.4 17.28 80.38 17.18 78.66 17.1 76.94 17.09 75.22 17.08 73.27 17.2 71.32 17.17 69.37 17.14 67.67 17.09 65.94 17.34 64.25 17.51 63.06 17.79 61.74 18.73 60.9 18.78 60.85 18.9 60.84 18.95 60.9 20.88 63.06 20.79 66.67 20.98 69.38 21.24 73.06 21.6 76.72 21.76 80.4 22.14 80.41 22.53 80.41 22.91 80.41 23.02 80.41 23.13 80.41 23.24 80.41 23.29 79.37 23.3 78.33 23.3 77.29 23.3 74.88 23.24 72.48 23.15 70.07 23.03 68.66 22.87 67.24 22.69 65.82Z" fill="#AA800D"/><path d="M23.82 80.42C23.78 78.93 23.72 77.45 23.63 75.96 23.64 76.82 23.64 77.67 23.63 78.52 23.62 79.15 23.61 79.78 23.58 80.41 23.67 80.42 23.74 80.42 23.82 80.42Z" fill="#AA800D"/><path d="M26.58 70.3C26.26 65.82 25.14 61.52 23.57 57.33 23.24 56.46 22.9 55.61 22.53 54.78 22.78 58.21 23.01 61.63 23.2 65.06 23.29 66.59 23.37 68.12 23.45 69.65 23.47 69.88 23.49 70.11 23.52 70.34 23.85 73.69 24.07 77.06 24.15 80.43 25.06 80.43 25.98 80.43 26.9 80.43 26.67 77.06 26.82 73.67 26.58 70.3Z" fill="#AA800D"/><path d="M22.3 47.7C22.35 47.41 22.39 47.12 22.39 46.82 22.4 46.02 22.3 45.22 22.13 44.44 21.95 43.6 21.73 42.77 21.5 41.94 21.68 43.99 21.85 46.05 22.01 48.1 22.18 48.17 22.23 48.09 22.3 47.7Z" fill="#AA800D"/><path d="M25.8 53.4C24.95 48.79 23.11 44.44 22.27 39.84 21.85 37.55 21.85 35.34 22.02 33.02 22.02 32.95 22.03 32.89 22.03 32.82 21.62 33.23 21.21 33.64 20.8 34.05 20.99 36.12 21.17 38.2 21.35 40.27 21.42 40.52 21.49 40.77 21.56 41.02 22.2 43.3 23.25 46.01 22.45 48.37 22.42 48.45 22.31 48.46 22.24 48.44 22.17 48.42 22.1 48.4 22.03 48.38 22.18 50.2 22.32 52.02 22.45 53.84 23 55.03 23.5 56.24 23.96 57.49 25.43 61.51 26.54 65.64 26.85 69.93 27.1 73.42 26.94 76.94 27.18 80.43 27.73 80.43 28.29 80.43 28.84 80.43 27.7 71.43 27.44 62.33 25.8 53.4Z" fill="#AA800D"/><path d="M31.41 70.75C31.16 65.53 30.76 60.29 29.72 55.16 28.12 47.27 24.76 39.85 23 32.02 22.77 32.25 22.54 32.48 22.31 32.71 22.31 32.78 22.3 32.86 22.3 32.93 22.12 35.41 22.08 37.8 22.58 40.25 23.51 44.84 25.3 49.2 26.11 53.83 27.67 62.69 27.96 71.69 29.09 80.6 29.87 80.6 30.64 80.6 31.42 80.6 31.35 77.33 31.57 74.03 31.41 70.75Z" fill="#AA800D" opacity="0.4"/><path d="M33.76 77.32C33.41 66.49 32.82 55.66 32.23 44.84 31.93 39.46 31.62 34.08 31.46 28.69 31.41 27.01 31.37 25.34 31.35 23.66 30.81 24.17 30.27 24.68 29.74 25.19 29.96 28.29 30.36 31.4 30.61 34.49 30.86 37.64 31.34 40.97 30.48 44.07 30.45 44.18 30.32 44.28 30.21 44.19 28.06 42.38 27.49 39.03 26.84 36.45 26.25 34.08 25.84 31.67 25.61 29.25 24.84 30.02 24.06 30.8 23.29 31.58 25.07 39.58 28.55 47.14 30.12 55.22 31.12 60.36 31.53 65.59 31.76 70.82 31.91 74.02 31.69 77.24 31.76 80.45 32 80.45 32.23 80.45 32.47 80.45 32.93 80.45 33.4 80.46 33.86 80.46 33.82 79.4 33.79 78.36 33.76 77.32Z" fill="#AA6E0D"/><path d="M29.34 30.79C29.24 29.21 28.98 27.65 28.81 26.07 28.26 26.6 27.72 27.13 27.18 27.66 27.02 29.91 26.9 32.17 27.62 34.3 27.77 34.73 27.95 35.18 28.24 35.54 28.37 35.7 28.51 35.86 28.68 35.98 28.62 35.94 28.99 35.02 29.01 34.9 29.37 33.57 29.44 32.18 29.34 30.79Z" fill="#AA800D"/><path d="M30.26 34.27C30.05 31.39 29.66 28.52 29.44 25.65 29.32 25.77 29.2 25.89 29.08 26 29.47 29.53 30.33 33.13 28.84 36.47 28.8 36.55 28.69 36.52 28.64 36.48 26.9 35.19 26.85 32.4 26.83 30.45 26.82 29.67 26.86 28.89 26.91 28.11 26.85 28.17 26.78 28.23 26.72 28.3 26.44 28.58 26.15 28.87 25.87 29.15 26.1 31.62 26.5 34.07 27.1 36.47 27.72 38.94 28.27 42.15 30.24 43.97 31.03 40.82 30.49 37.46 30.26 34.27Z" fill="#AA800D" opacity="0.4"/><path d="M46.21 74.84C46.13 72.38 46.11 69.92 46.02 67.46 45.64 56.76 46.22 46.05 45.67 35.35 45.39 29.95 44.81 24.6 44.26 19.23 44.03 17.02 43.9 14.81 43.87 12.59 43.36 13.04 42.84 13.48 42.33 13.93 42.33 14.04 42.32 14.15 42.31 14.26 42.14 18.27 42.23 22.29 42.38 26.29 42.57 31.66 42.89 37.01 43.14 42.38 43.39 47.76 43.44 53.16 43.61 58.55 43.84 65.86 44.07 73.17 44.18 80.48 45.08 80.48 45.99 80.49 46.89 80.49 46.42 78.66 46.27 76.74 46.21 74.84Z" fill="#AA800D"/><path d="M51.63 9.6C51.61 9.84 51.59 10.08 51.56 10.32 51.45 11.31 51.32 12.32 51.03 13.28 50.87 13.8 50.67 14.55 50.19 14.88 48.37 16.14 47.56 12.15 47.27 9.62 46.83 10.06 46.38 10.49 45.92 10.92 46.19 12.19 46.42 13.47 46.68 14.75 46.94 16.04 47.21 17.33 47.51 18.6 47.84 20.05 48.18 21.61 48.92 22.92 49.28 23.55 49.94 24.39 50.46 23.48 50.91 22.68 51.14 21.74 51.35 20.85 52.01 18.13 52.39 15.32 52.65 12.53 52.7 11.99 52.74 11.44 52.78 10.9 52.39 10.47 52.01 10.03 51.63 9.6Z" fill="#AA800D" opacity="0.4"/><path d="M46.55 22.1C46.74 23.57 46.95 25.04 47.26 26.48 47.57 27.93 47.91 29.58 48.77 30.83 49.45 31.82 50.33 32.08 51.08 31.02 51.81 29.99 52.22 28.74 52.57 27.55 53.27 25.17 53.64 22.73 54.2 20.32 54.71 18.12 55.07 15.88 55.36 13.64 54.57 12.77 53.8 11.89 53.02 11.01 52.83 13.75 52.48 16.49 51.95 19.18 51.74 20.26 51.51 21.35 51.15 22.4 50.98 22.88 50.76 23.7 50.28 23.98 48.79 24.87 47.68 20.19 47.5 19.5 46.78 16.67 46.35 13.78 45.71 10.93 45.46 11.16 45.21 11.38 44.96 11.6 45.37 15.12 46.09 18.58 46.55 22.1Z" fill="#AA6E0D"/><path d="M45.8 23.17C46.49 27.72 46.9 32.27 47.36 36.85 47.64 39.67 47.9 42.68 48.8 45.39 49.05 46.13 49.62 47.95 50.67 47.91 51.23 47.89 51.62 47.34 51.86 46.9 52.98 44.9 53.35 42.4 53.72 40.17 54.18 37.41 54.48 34.63 54.7 31.84 54.89 29.43 54.91 27.03 55.06 24.63 55.26 21.26 55.6 17.9 56.01 14.55 55.88 14.41 55.76 14.28 55.64 14.14 55.57 14.7 55.51 15.26 55.42 15.81 55.04 18.32 54.45 20.78 53.96 23.27 53.48 25.75 53 28.48 51.77 30.71 51.44 31.31 50.93 32.14 50.15 32.21 49.32 32.28 48.7 31.53 48.34 30.88 46.92 28.39 46.62 25.23 46.25 22.43 45.79 18.95 45.08 15.53 44.67 12.06 44.59 12.13 44.51 12.21 44.43 12.28 44.71 15.92 45.25 19.55 45.8 23.17Z" fill="#AA800D" opacity="0.4"/><path d="M56.88 64.18C56.72 53.42 57.1 42.68 56.88 31.92 56.77 26.3 56.62 20.68 56.65 15.05 56.52 14.91 56.4 14.78 56.27 14.64 55.84 18.12 55.49 21.61 55.31 25.11 55.2 27.41 55.15 29.7 54.97 31.99 54.75 34.7 54.46 37.41 54.01 40.1 53.64 42.3 53.28 44.74 52.21 46.73 51.96 47.2 51.58 47.85 51.01 47.98 50.3 48.15 49.74 47.6 49.36 47.06 48.59 45.96 48.27 44.5 48.01 43.2 47.74 41.87 47.57 40.53 47.38 39.18 47.04 36.88 46.89 34.55 46.68 32.23 46.45 29.62 46.13 27.04 45.74 24.46 45.13 20.43 44.49 16.39 44.16 12.32 44.14 12.34 44.13 12.35 44.11 12.37 44.11 14.86 44.3 17.33 44.57 19.8 45.15 25.17 45.7 30.52 45.95 35.92 46.2 41.2 46.24 46.47 46.19 51.75 46.14 57.18 46.07 62.61 46.29 68.03 46.46 72.12 46.08 76.48 47.15 80.49 48.62 80.5 50.09 80.5 51.56 80.51 53.28 80.52 55 80.52 56.73 80.53 56.79 79.34 56.85 78.15 56.9 76.96 57.07 72.71 56.94 68.44 56.88 64.18Z" fill="#AA800D"/><path d="M60.41 80.55C60.41 80.43 60.41 80.31 60.41 80.18 60.06 77.95 59.71 75.72 59.5 73.47 59.26 70.81 59.26 68.15 59.35 65.48 59.55 60.08 60.13 54.7 60.17 49.3 60.25 38.91 59.49 28.53 59.47 18.14 58.63 17.23 57.8 16.32 56.97 15.41 56.96 18.56 57 21.7 57.06 24.85 57.16 30.22 57.32 35.59 57.32 40.95 57.32 46.32 57.09 51.69 57.12 57.06 57.15 62.47 57.3 67.89 57.29 73.3 57.29 75.7 57.13 78.11 57.03 80.53 58.16 80.54 59.28 80.54 60.41 80.55Z" fill="#AA800D"/><path d="M62.17 21.09C61.76 20.64 61.35 20.19 60.93 19.74 60.85 20.31 60.79 20.88 60.75 21.45 60.64 23.03 60.59 24.88 61.4 26.3 62.11 24.67 62.1 22.84 62.17 21.09Z" fill="#AA800D"/><path d="M62.45 21.57C62.38 23.35 62.36 25.22 61.58 26.87 61.53 26.98 61.4 26.95 61.34 26.86 60.37 25.41 60.35 23.45 60.46 21.77 60.51 21.06 60.59 20.36 60.69 19.66 60.39 19.34 60.1 19.02 59.8 18.69 59.8 19.28 59.8 19.88 59.81 20.47 59.93 31.3 60.89 42.17 60.4 53.01 60.15 58.4 59.58 63.79 59.62 69.19 59.65 72.18 60 75.13 60.42 78.07 60.47 73.95 60.72 69.82 60.92 65.72 61.18 60.36 61.63 55.02 62.09 49.67 62.83 41.06 63.38 32.42 64.55 23.86 63.84 23.09 63.14 22.33 62.45 21.57Z" fill="#AA800D" opacity="0.4"/><path d="M62.77 77C62.83 71.57 62.83 66.13 63 60.7 63.17 55.25 63.66 49.86 64.12 44.43 64.35 41.74 64.51 39.05 64.68 36.35 64.84 33.82 65.1 31.29 65.25 28.76 65.33 27.39 65.34 26.01 65.43 24.64 65.23 24.42 65.03 24.2 64.83 23.98 64.13 29.19 63.65 34.43 63.22 39.66 62.79 44.95 62.3 50.23 61.87 55.52 61.43 60.9 61.19 66.29 60.98 71.69 60.87 74.37 60.69 77.1 60.7 79.82 60.74 80.06 60.77 80.31 60.81 80.55 61.45 80.55 62.09 80.55 62.72 80.56 62.74 79.37 62.76 78.18 62.77 77Z" fill="#AA800D"/><path d="M67.75 27.18C67.08 26.44 66.41 25.71 65.74 24.98 65.67 26.3 65.66 27.62 65.56 28.94 65.37 31.52 65.14 34.1 64.98 36.69 64.64 42.1 64.04 47.48 63.69 52.89 63.08 62.1 63.2 71.33 63.05 80.56 63.55 80.56 64.05 80.56 64.55 80.57 65.34 69.94 65.31 59.27 66.19 48.65 66.64 43.25 67.27 37.87 67.73 32.47 67.87 30.82 67.89 29.12 67.98 27.43 67.9 27.33 67.82 27.26 67.75 27.18Z" fill="#AA6E0D"/><path d="M70.79 30.4C69.24 38.77 69.17 47.42 68.91 55.89 68.67 63.72 68.57 71.55 68.47 79.38 68.52 78.47 68.58 77.57 68.64 76.67 69.41 65.96 70.66 55.28 71.35 44.56 71.63 40.26 71.79 35.94 71.98 31.64 71.59 31.22 71.19 30.81 70.79 30.4Z" fill="#AA800D"/><path d="M68.67 55.18C68.94 46.85 69.04 38.38 70.57 30.16 69.81 29.37 69.05 28.57 68.3 27.77 68.25 28.83 68.21 29.89 68.15 30.95 67.99 33.68 67.71 36.23 67.47 38.59 66.93 43.98 66.38 49.37 66.11 54.78 65.68 63.37 65.51 71.98 64.86 80.56 65.97 80.56 67.08 80.57 68.19 80.57 68.3 72.11 68.39 63.64 68.67 55.18Z" fill="#AA800D" opacity="0.4"/><path d="M80.49 80.66C80.73 78.6 80.92 76.54 81.11 74.47 81.49 70.29 82.28 66.13 82.35 61.93 82.42 57.9 82.22 53.87 82.34 49.84 82.38 48.4 82.38 46.95 82.53 45.52 82.62 44.66 82.74 43.75 83.06 42.94 82.79 42.67 82.52 42.4 82.26 42.13 81.57 49.51 81.01 56.92 80.77 64.32 80.59 69.8 79.96 75.26 79.43 80.72 79.78 80.73 80.13 80.74 80.48 80.74 80.48 80.71 80.48 80.69 80.49 80.66Z" fill="#AA800D"/><path d="M84.14 44.21C83.86 43.92 83.58 43.63 83.29 43.35 82.92 44.37 82.84 45.53 82.77 46.57 82.69 47.88 82.7 49.2 82.63 50.51 82.42 54.58 82.79 58.64 82.65 62.71 82.51 66.81 81.73 70.86 81.4 74.94 81.24 76.9 81.03 78.85 80.81 80.81 80.81 80.85 80.8 80.89 80.8 80.92 81.44 80.93 82.08 80.95 82.72 80.96 82.74 80.72 82.75 80.48 82.77 80.23 82.89 78.33 83 76.42 83.15 74.52 83.47 70.44 83.87 66.36 84.17 62.28 84.6 56.26 84.43 50.23 84.14 44.21Z" fill="#AA800D" opacity="0.4"/><path d="M87.26 47.23C86.82 46.82 86.39 46.41 85.96 45.99 86.08 49.35 85.83 52.73 86.19 56.08 86.43 58.38 86.64 60.82 87.19 63.13 87.48 60.8 87.79 58.47 88.09 56.14 87.43 53.21 87.07 50.21 87.26 47.23Z" fill="#AA800D" opacity="0.4"/><path d="M88.18 55.14C88.45 52.95 88.71 50.76 88.93 48.58 88.45 48.16 87.97 47.72 87.5 47.29 87.36 49.91 87.65 52.55 88.18 55.14Z" fill="#AA800D"/><path d="M85.99 56.66C85.74 54.33 85.65 52.03 85.69 49.68 85.71 48.3 85.73 46.92 85.67 45.54 85.25 45.13 84.83 44.72 84.42 44.31 84.71 50.35 84.86 56.39 84.41 62.43 84.1 66.62 83.68 70.8 83.37 74.99 83.23 76.88 83.22 78.85 83.05 80.79 83.3 80.8 83.54 80.81 83.79 80.81 83.81 80.27 83.83 79.72 83.88 79.18 84.01 77.72 84.29 76.26 84.29 74.79 84.29 72.75 83.94 70.15 85.08 68.33 85.15 68.22 85.32 68.24 85.38 68.34 86.05 69.46 86.25 70.77 86.29 72.09 86.5 69.48 86.7 66.89 87.02 64.3 87.05 64.1 87.07 63.89 87.1 63.69 86.48 61.4 86.24 58.97 85.99 56.66Z" fill="#AA6E0D"/><path d="M85.68 80.57C85.69 80.51 85.69 80.46 85.7 80.4 85.79 78.66 85.87 76.93 85.91 75.19 85.96 73.09 86.24 70.66 85.23 68.72 84.29 70.5 84.62 72.93 84.61 74.85 84.6 76.21 84.34 77.56 84.23 78.92 84.18 79.56 84.14 80.2 84.11 80.83 84.55 80.84 84.99 80.85 85.42 80.87 85.42 80.82 85.42 80.77 85.42 80.73 85.53 80.74 85.66 80.69 85.68 80.57Z" fill="#AA800D"/><path d="M73.86 71.76C73.81 69.01 73.9 66.04 73.17 63.37 73.07 63.02 72.68 61.56 72.06 62.06 71.58 62.44 71.42 63.23 71.28 63.79 70.73 66.13 70.63 68.59 70.54 70.98 70.43 73.74 70.43 76.49 70.48 79.24 70.49 79.69 70.5 80.14 70.5 80.59 71.78 80.6 73.06 80.62 74.33 80.63 74.11 77.68 73.91 74.73 73.86 71.76Z" fill="#AA800D"/><path d="M75.82 54.21C75.45 48.87 75.05 43.51 75.21 38.15 75.24 37.06 75.23 35.97 75.22 34.88 74.25 33.9 73.27 32.93 72.3 31.95 72.15 35.4 72.01 38.86 71.81 42.31 71.5 47.68 71.06 53.03 70.57 58.38 69.89 65.77 69.13 73.17 68.71 80.58 69.19 80.58 69.68 80.59 70.16 80.59 70.13 79.39 70.14 78.2 70.13 77.02 70.11 73.57 70.14 70.1 70.5 66.68 70.61 65.68 70.73 64.67 70.97 63.68 71.11 63.12 71.27 62.39 71.7 61.96 72.83 60.83 73.49 63.31 73.62 63.99 74.13 66.66 74.13 69.42 74.18 72.12 74.23 74.97 74.42 77.8 74.65 80.64 75.07 80.65 75.48 80.65 75.9 80.66 75.91 79.74 75.91 78.83 75.9 77.91 75.88 75.29 75.94 72.68 75.99 70.06 76.11 64.78 76.19 59.48 75.82 54.21Z" fill="#AA800D"/><path d="M77.76 37.43C77.7 38.95 77.7 40.47 77.75 41.99 77.82 43.97 77.64 46.52 78.8 48.25 79.45 45.52 79.87 42.74 80.2 39.96 80.12 39.88 80.04 39.79 79.96 39.71 79.23 38.94 78.5 38.19 77.76 37.43Z" fill="#AA800D"/><path d="M78.08 80.69C78.28 77.82 78.39 74.96 78.57 72.08 78.83 67.9 79.24 63.53 78.21 59.41 77.81 60.25 77.85 61.24 77.89 62.16 77.93 63.06 77.95 63.96 77.99 64.87 78.07 67.06 78.13 69.24 78.11 71.43 78.08 74.52 77.95 77.61 77.87 80.7 77.94 80.69 78.01 80.69 78.08 80.69Z" fill="#AA800D"/><path d="M80.46 40.42C80.12 43.24 79.69 46.04 79.01 48.8 78.99 48.89 78.83 49.04 78.74 48.92 77.36 47.19 77.53 44.54 77.45 42.46 77.39 40.75 77.39 39.04 77.47 37.34 76.83 36.69 76.18 36.04 75.53 35.39 75.52 36.79 75.51 38.19 75.5 39.6 75.45 44.86 75.9 50.09 76.19 55.34 76.47 60.52 76.41 65.7 76.3 70.88 76.23 74.19 76.33 77.53 76.26 80.86 76.71 80.87 77.15 80.87 77.6 80.88 77.68 77.51 77.84 74.15 77.84 70.78 77.84 68.36 77.67 65.95 77.66 63.53 77.65 62.08 77.33 60.43 78.15 59.13 78.21 59.03 78.34 59.05 78.37 59.16 79.46 63.25 79.1 67.6 78.84 71.77 78.65 74.81 78.54 77.85 78.32 80.88 78.6 80.88 78.87 80.89 79.15 80.89 79.36 78.66 79.59 76.44 79.8 74.21 80.26 69.22 80.45 64.23 80.72 59.23 81.03 53.49 81.47 47.77 82 42.05 81.49 41.5 80.98 40.96 80.46 40.42Z" fill="#AA800D" opacity="0.4"/><path d="M35.54 23.34C35.65 26.25 35.18 29.47 36.45 32.18 37.73 29.92 36.94 26.76 36.69 24.34 36.51 22.57 36.48 20.79 36.45 19.01 36.06 19.36 35.67 19.71 35.28 20.06 35.38 21.17 35.49 22.27 35.54 23.34Z" fill="#AA800D"/><path d="M38.04 20.99C38.07 19.86 38.17 18.72 38.25 17.59 37.74 18.04 37.23 18.49 36.72 18.94 36.76 20.96 36.78 22.99 37.02 25 37.31 27.43 37.94 30.55 36.51 32.75 36.45 32.84 36.32 32.87 36.27 32.76 34.8 29.88 35.43 26.49 35.23 23.4 35.17 22.45 35.07 21.48 34.98 20.5 34.53 20.9 34.09 21.31 33.64 21.71 33.69 22.18 33.74 22.64 33.79 23.11 34.17 26.43 34.6 29.74 34.82 33.08 34.95 35.06 35.06 37.01 35.08 38.99 35.09 39.81 35.09 40.69 35.37 41.47 35.48 41.79 35.83 42.54 36.18 42.04 36.72 41.29 36.87 40.19 37.03 39.31 37.28 37.96 37.45 36.6 37.6 35.24 37.83 33.11 38.12 30.91 38.11 28.76 38.13 26.17 37.98 23.58 38.04 20.99Z" fill="#AA800D" opacity="0.4"/><path d="M40.14 15.98C40.11 22.29 40.16 28.6 40.32 34.91 40.6 45.7 41.1 56.49 41.6 67.27 41.75 70.46 41.98 73.64 42.21 76.83 42.3 78.11 42.39 79.38 42.43 80.66 42.93 80.66 43.42 80.66 43.91 80.67 43.84 75.86 43.72 71.05 43.57 66.25 43.25 55.47 42.97 44.69 42.43 33.91 42.16 28.55 41.93 23.19 41.95 17.82 41.96 16.66 42 15.5 42.05 14.35 41.41 14.89 40.77 15.43 40.14 15.98Z" fill="#AA800D" opacity="0.4"/><path d="M41.98 77.71C41.86 75.85 41.69 74 41.55 72.14 41.18 67.13 41.07 62.09 40.88 57.08 40.67 51.69 40.41 46.3 40.22 40.9 39.92 32.62 39.81 24.34 39.84 16.05 39.42 16.41 39 16.76 38.59 17.12 38.54 17.95 38.47 18.77 38.42 19.6 38.29 21.87 38.39 24.15 38.44 26.42 38.48 28.6 38.35 30.74 38.16 32.91 37.94 35.47 37.75 38.12 37.05 40.61 36.91 41.09 36.72 42.03 36.18 42.25 35.43 42.57 35.04 41.36 34.94 40.85 34.67 39.43 34.85 38 34.75 36.58 34.57 34 34.4 31.43 34.15 28.86 33.92 26.5 33.59 24.15 33.36 21.79 32.78 22.32 32.2 22.85 31.63 23.38 31.64 24.84 31.67 26.3 31.71 27.77 32.02 38.64 32.79 49.5 33.34 60.36 33.68 67.05 33.95 73.74 34.13 80.44 36.8 80.45 39.46 80.46 42.13 80.47 42.1 79.55 42.05 78.63 41.98 77.71Z" fill="#AA800D"/></g></g><g opacity="0.3"><path d="M79.96 39.71C75.95 35.48 71.68 31.5 67.75 27.18 63.71 22.74 59.62 18.35 55.59 13.9 53.56 11.66 51.59 9.38 49.61 7.1 49.6 7.11 49.58 7.13 49.57 7.14 49.5 7.22 49.43 7.29 49.37 7.38 49.32 7.45 49.23 7.48 49.16 7.48 45.91 11.11 41.93 14.22 38.28 17.41 34.32 20.86 30.46 24.42 26.74 28.12 21.22 33.62 15.68 39.14 10.42 44.9 10.57 45.67 10.7 46.44 10.83 47.22L49.21 9.58 84.27 47.13 81.83 76.28 71.75 75.77C71.75 75.77 74.9 47.5 65.59 37.37 56.28 27.24 36.52 23.95 27.41 41.11 27.41 41.11 23.18 47.23 23.91 64L24.65 77.58 13.48 77.52C13.55 78.49 13.55 79.49 13.83 80.4 13.85 80.47 13.85 80.54 13.84 80.6 13.84 80.61 13.85 80.62 13.85 80.63 13.85 80.64 13.85 80.66 13.86 80.67 16.82 80.21 19.95 80.42 22.93 80.42 26.11 80.42 29.28 80.43 32.46 80.44 38.83 80.46 45.2 80.49 51.58 80.52 62.86 80.58 74.15 80.49 85.43 80.87 85.43 80.82 85.43 80.77 85.43 80.73 85.55 80.75 85.67 80.7 85.69 80.57 85.88 78.86 86.01 77.15 86.07 75.43 86.08 75.39 86.09 75.35 86.09 75.3 86.09 75.29 86.1 75.28 86.1 75.27 86.16 74.27 86.2 73.28 86.27 72.41 86.49 69.7 86.69 67 87.03 64.3 87.68 59.06 88.42 53.82 88.95 48.57 85.78 45.79 82.84 42.75 79.96 39.71Z" fill="#949568"/></g><g opacity="0.3"><path d="M79.96 39.85C75.95 35.62 71.68 31.64 67.75 27.32 63.71 22.88 59.62 18.49 55.59 14.04 53.56 11.8 51.59 9.51 49.61 7.24 49.6 7.25 49.58 7.26 49.57 7.28 49.5 7.36 49.43 7.43 49.36 7.52 49.31 7.59 49.23 7.62 49.15 7.62 45.9 11.24 41.92 14.36 38.27 17.55 34.31 20.99 30.45 24.56 26.73 28.26 21.21 33.76 15.67 39.28 10.42 45.04 10.5 45.45 10.57 45.86 10.64 46.27 16.54 39.95 22.58 33.76 28.81 27.76 32.2 24.49 35.64 21.3 39.15 18.19 39.98 17.35 40.81 16.52 41.65 15.69 43.4 13.97 45.16 12.24 47.09 10.72 47.51 10.39 49.23 8.81 49.88 9.42 49.93 9.41 49.97 9.42 50.04 9.43 50.15 9.44 50.17 9.58 50.12 9.68 50.14 9.71 50.17 9.74 50.19 9.77L50.33 9.88C50.39 9.92 50.45 9.97 50.5 10.02 50.74 10.23 50.94 10.46 51.16 10.69 51.72 11.28 52.29 11.86 52.86 12.44 56.56 16.22 60.14 20.15 63.78 23.99 67.45 27.87 71.11 31.77 74.71 35.71 78.24 39.57 81.97 43.27 85.63 47.01 86.67 48.08 87.71 49.14 88.76 50.2 88.81 49.71 88.86 49.23 88.91 48.74 85.78 45.93 82.84 42.88 79.96 39.85Z" fill="#FCFF5C"/></g><path d="M11.66 48.11 14.17 75.91 22.41 75.96C22.41 75.96 14.42 29.48 46.4 27.65 46.4 27.65 47.85 11.42 47.93 11.72 48 12.02 11.66 48.11 11.66 48.11Z" fill="#FFFCDB" opacity="0.1"/><g><g><path d="M42.11 31.78C42.11 32.04 41.9 32.25 41.64 32.25 41.38 32.25 41.17 32.04 41.17 31.78 41.17 31.52 41.38 31.31 41.64 31.31 41.9 31.31 42.11 31.52 42.11 31.78Z"/><path d="M41.65 31.46C41.65 31.46 41.65 31.46 41.65 31.46 41.6 31.39 41.45 31.49 41.41 31.52 41.33 31.6 41.27 31.8 41.43 31.81 41.49 31.82 41.56 31.76 41.55 31.7 41.55 31.69 41.54 31.67 41.54 31.66 41.54 31.64 41.54 31.65 41.53 31.63 41.53 31.65 41.53 31.62 41.53 31.63 41.53 31.62 41.53 31.62 41.54 31.6 41.56 31.57 41.61 31.55 41.63 31.51 41.66 31.51 41.68 31.48 41.65 31.46Z" fill="#FFFFFF"/><path d="M41.47 31.89C41.43 31.89 41.42 31.96 41.46 31.96 41.5 31.96 41.52 31.89 41.47 31.89Z" fill="#FFFFFF"/></g><g><path d="M31.13 38.95C31.13 39.21 30.92 39.42 30.66 39.42 30.4 39.42 30.19 39.21 30.19 38.95 30.19 38.69 30.4 38.48 30.66 38.48 30.93 38.48 31.14 38.69 31.13 38.95Z"/><path d="M30.68 38.64C30.68 38.63 30.67 38.63 30.68 38.64 30.63 38.57 30.48 38.67 30.44 38.7 30.36 38.77 30.3 38.98 30.46 38.99 30.52 38.99 30.59 38.94 30.58 38.88 30.58 38.87 30.58 38.85 30.57 38.84 30.56 38.82 30.56 38.83 30.56 38.82 30.56 38.84 30.56 38.81 30.56 38.82 30.56 38.81 30.56 38.81 30.57 38.79 30.59 38.76 30.64 38.74 30.66 38.7 30.69 38.68 30.71 38.65 30.68 38.64Z" fill="#FFFFFF"/><path d="M30.49 39.07C30.45 39.07 30.43 39.14 30.48 39.14 30.52 39.13 30.54 39.07 30.49 39.07Z" fill="#FFFFFF"/></g><g><path d="M25.84 56.82C25.84 57.08 25.63 57.29 25.37 57.29 25.11 57.29 24.9 57.08 24.9 56.82 24.9 56.56 25.11 56.35 25.37 56.35 25.64 56.35 25.84 56.56 25.84 56.82Z"/><path d="M25.38 56.5C25.38 56.5 25.38 56.5 25.38 56.5 25.33 56.43 25.18 56.53 25.14 56.57 25.06 56.64 25 56.85 25.16 56.86 25.22 56.86 25.29 56.81 25.28 56.75 25.28 56.74 25.28 56.72 25.27 56.71 25.27 56.69 25.27 56.69 25.26 56.68 25.26 56.7 25.26 56.67 25.26 56.68 25.26 56.67 25.26 56.67 25.27 56.65 25.29 56.61 25.34 56.6 25.36 56.56 25.39 56.55 25.41 56.52 25.38 56.5Z" fill="#FFFFFF"/><path d="M25.2 56.93C25.16 56.93 25.14 56.99 25.19 56.99 25.23 57 25.25 56.93 25.2 56.93Z" fill="#FFFFFF"/></g><g><path d="M27.16 79.15C27.16 79.41 26.95 79.62 26.69 79.62 26.43 79.62 26.22 79.41 26.22 79.15 26.22 78.89 26.43 78.68 26.69 78.68 26.95 78.68 27.16 78.89 27.16 79.15Z"/><path d="M26.7 78.83C26.7 78.83 26.7 78.83 26.7 78.83 26.65 78.75 26.5 78.86 26.46 78.9 26.38 78.97 26.32 79.18 26.48 79.19 26.54 79.19 26.61 79.14 26.6 79.08 26.6 79.07 26.6 79.05 26.59 79.04 26.58 79.02 26.59 79.03 26.58 79.01 26.58 79.03 26.58 79 26.58 79.01 26.58 79 26.58 79 26.59 78.98 26.61 78.94 26.66 78.93 26.68 78.89 26.71 78.88 26.73 78.84 26.7 78.83Z" fill="#FFFFFF"/><path d="M26.52 79.26C26.48 79.26 26.46 79.33 26.51 79.33 26.55 79.33 26.57 79.26 26.52 79.26Z" fill="#FFFFFF"/></g><g><path d="M69.19 79.85C69.19 80.11 68.98 80.32 68.72 80.32 68.46 80.32 68.25 80.11 68.25 79.85 68.25 79.59 68.46 79.38 68.72 79.38 68.98 79.38 69.19 79.59 69.19 79.85Z"/><path d="M68.73 79.53C68.73 79.53 68.73 79.53 68.73 79.53 68.68 79.46 68.53 79.56 68.49 79.6 68.41 79.67 68.35 79.88 68.51 79.89 68.57 79.89 68.64 79.84 68.63 79.77 68.63 79.76 68.63 79.74 68.62 79.73 68.61 79.71 68.62 79.72 68.61 79.71 68.61 79.72 68.61 79.7 68.61 79.71 68.61 79.7 68.61 79.7 68.62 79.68 68.64 79.65 68.69 79.63 68.71 79.59 68.74 79.58 68.76 79.54 68.73 79.53Z" fill="#FFFFFF"/><path d="M68.55 79.96C68.51 79.96 68.5 80.03 68.54 80.03 68.58 80.02 68.6 79.96 68.55 79.96Z" fill="#FFFFFF"/></g><g><path d="M70.2 67.02C70.2 67.28 69.99 67.49 69.73 67.49 69.47 67.49 69.26 67.28 69.26 67.02 69.26 66.76 69.47 66.55 69.73 66.55 69.99 66.55 70.2 66.76 70.2 67.02Z"/><path d="M69.74 66.71C69.74 66.71 69.74 66.71 69.74 66.71 69.69 66.64 69.54 66.74 69.5 66.77 69.42 66.84 69.36 67.05 69.52 67.06 69.58 67.06 69.65 67.01 69.64 66.95 69.64 66.94 69.63 66.92 69.63 66.91 69.62 66.89 69.62 66.9 69.62 66.88 69.62 66.9 69.62 66.87 69.62 66.88 69.62 66.87 69.62 66.87 69.63 66.85 69.65 66.82 69.7 66.8 69.72 66.76 69.75 66.76 69.77 66.72 69.74 66.71Z" fill="#FFFFFF"/><path d="M69.56 67.14C69.52 67.14 69.5 67.2 69.55 67.21 69.59 67.2 69.61 67.14 69.56 67.14Z" fill="#FFFFFF"/></g><g><path d="M25.48 66.44C25.48 66.7 25.27 66.91 25.01 66.91 24.75 66.91 24.54 66.7 24.54 66.44 24.54 66.18 24.75 65.97 25.01 65.97 25.27 65.97 25.48 66.18 25.48 66.44Z"/><path d="M25.02 66.12C25.02 66.12 25.02 66.12 25.02 66.12 24.98 66.05 24.82 66.15 24.78 66.19 24.7 66.26 24.64 66.47 24.8 66.48 24.86 66.48 24.93 66.43 24.92 66.37 24.92 66.35 24.91 66.34 24.91 66.33 24.9 66.31 24.9 66.32 24.9 66.31 24.9 66.33 24.9 66.3 24.9 66.31 24.9 66.3 24.9 66.3 24.91 66.28 24.93 66.25 24.98 66.23 25 66.19 25.03 66.17 25.05 66.14 25.02 66.12Z" fill="#FFFFFF"/><path d="M24.84 66.55C24.8 66.55 24.78 66.62 24.83 66.62 24.87 66.62 24.89 66.55 24.84 66.55Z" fill="#FFFFFF"/></g><g><path d="M69.8 54.14C69.8 54.4 69.59 54.61 69.33 54.61 69.07 54.61 68.86 54.4 68.86 54.14 68.86 53.88 69.07 53.67 69.33 53.67 69.59 53.66 69.8 53.88 69.8 54.14Z"/><path d="M69.34 53.82C69.34 53.82 69.34 53.82 69.34 53.82 69.29 53.75 69.14 53.85 69.1 53.89 69.02 53.96 68.96 54.17 69.12 54.18 69.17 54.18 69.25 54.13 69.24 54.07 69.24 54.05 69.24 54.04 69.23 54.03 69.22 54.01 69.23 54.02 69.22 54 69.22 54.02 69.22 53.99 69.22 54 69.22 53.99 69.22 53.99 69.23 53.97 69.25 53.94 69.3 53.92 69.32 53.88 69.35 53.87 69.37 53.83 69.34 53.82Z" fill="#FFFFFF"/><path d="M69.16 54.25C69.12 54.25 69.1 54.32 69.15 54.32 69.19 54.31 69.2 54.25 69.16 54.25Z" fill="#FFFFFF"/></g><g><path d="M65.54 41.2C65.54 41.46 65.33 41.67 65.07 41.67 64.81 41.67 64.6 41.46 64.6 41.2 64.6 40.94 64.81 40.73 65.07 40.73 65.33 40.73 65.54 40.94 65.54 41.2Z"/><path d="M65.08 40.88C65.08 40.88 65.08 40.88 65.08 40.88 65.03 40.81 64.88 40.91 64.84 40.95 64.76 41.02 64.7 41.23 64.86 41.24 64.92 41.24 64.99 41.19 64.98 41.13 64.98 41.11 64.97 41.1 64.97 41.09 64.97 41.07 64.97 41.08 64.96 41.06 64.96 41.08 64.96 41.05 64.96 41.06 64.96 41.05 64.96 41.05 64.97 41.03 64.99 41 65.04 40.97 65.06 40.94 65.09 40.93 65.11 40.89 65.08 40.88Z" fill="#FFFFFF"/><path d="M64.9 41.31C64.86 41.31 64.84 41.38 64.89 41.38 64.93 41.38 64.95 41.31 64.9 41.31Z" fill="#FFFFFF"/></g><g><path d="M56.38 33.01C56.38 33.27 56.17 33.48 55.91 33.48 55.65 33.48 55.44 33.27 55.44 33.01 55.44 32.75 55.65 32.54 55.91 32.54 56.17 32.53 56.38 32.75 56.38 33.01Z"/><path d="M55.92 32.69C55.92 32.69 55.92 32.69 55.92 32.69 55.87 32.62 55.72 32.72 55.68 32.76 55.6 32.83 55.54 33.04 55.7 33.05 55.75 33.05 55.83 33 55.82 32.94 55.82 32.93 55.81 32.91 55.81 32.9 55.8 32.88 55.81 32.89 55.8 32.87 55.8 32.89 55.8 32.86 55.8 32.87 55.8 32.86 55.8 32.86 55.81 32.84 55.83 32.81 55.88 32.79 55.9 32.75 55.93 32.74 55.95 32.7 55.92 32.69Z" fill="#FFFFFF"/><path d="M55.74 33.12C55.7 33.12 55.68 33.19 55.73 33.19 55.77 33.18 55.79 33.12 55.74 33.12Z" fill="#FFFFFF"/></g><g><radialGradient cx="-6663.78" cy="-15377.9" r="96.1423" fx="-6677.57" fy="-15282.8" gradientUnits="userSpaceOnUse" id="SVGID_1_" gradientTransform="matrix(0.3166 0 0 0.3166 2157.01 4924.02)"><stop offset="0.1071" stop-color="#514019"/><stop offset="0.6327" stop-color="#231F1F"/><stop offset="1"/></radialGradient><path d="M67.44 48.69C65.32 40.05 57.96 32.7 48.78 32.4 39.28 32.09 30.53 37.46 27.7 46.68 26.23 51.47 26.12 56.74 26.15 61.72 26.18 67.78 26.76 73.88 27.46 79.9 27.43 79.93 27.42 79.96 27.42 79.99L27.48 81.1C27.48 81.21 27.52 81.31 27.64 81.33 31.48 81.78 35.21 81.81 39.06 81.58 42.96 81.34 46.84 81.63 50.73 81.58 53.06 81.89 55.58 82.02 57.92 81.81 58 81.8 58.08 81.74 58.13 81.66 60.82 81.64 63.52 81.56 66.21 81.61 66.21 81.68 66.26 81.74 66.36 81.76 66.58 81.8 66.8 81.79 67.02 81.78 67.25 81.89 67.65 81.71 67.68 81.39 68.18 75.69 68.15 69.98 68.27 64.27 68.39 58.98 68.71 53.85 67.44 48.69Z"/><path d="M60.35 80.95C58.75 80.95 57.17 81.07 55.58 81.13 54.6 81.09 53.61 81.08 52.63 81.12 52.56 81.12 52.5 81.12 52.43 81.11 52.39 81.11 52.36 81.12 52.33 81.13 51.85 81.15 51.38 81.19 50.91 81.24 46.98 81.05 43.05 80.93 39.12 81.04 36.67 81.11 34.28 81.21 31.83 81.03 30.66 80.95 28.83 81.23 27.95 80.37 27.96 80.35 27.96 80.33 27.96 80.3 27.43 70.03 26.07 59.71 28.02 49.49 28.98 44.44 31.4 40.06 35.69 37.13 39.82 34.3 44.87 33 49.84 33.49 59.32 34.44 65.37 42.89 66.92 51.67 67.67 55.89 67.53 60.23 67.46 64.5 67.37 69.98 67.44 75.48 66.91 80.95 64.72 80.98 62.53 80.96 60.35 80.95Z" fill="#765624"/><path d="M35.19 77.19C40.35 77.1 45.51 76.95 50.67 76.88 56.18 76.81 61.69 76.88 67.2 76.84 67.41 72.74 67.38 68.62 67.45 64.51 67.52 60.24 67.66 55.91 66.91 51.68 65.36 42.9 59.31 34.46 49.83 33.5 44.86 33 39.81 34.31 35.68 37.14 31.4 40.07 28.97 44.45 28.01 49.5 26.25 58.73 27.2 68.04 27.78 77.33 30.26 77.28 32.72 77.23 35.19 77.19Z" fill="url(#SVGID_1_)"/><path d="M66.92 51.67C65.39 43 59.46 34.65 50.16 33.54 61.74 38.42 64.06 57.24 55.78 66.68 51.58 71.47 45.27 74.17 39.14 75.42 35.43 76.17 31.54 76.5 27.72 76.2 27.74 76.57 27.77 76.95 27.79 77.32 30.26 77.28 32.73 77.23 35.19 77.19 40.35 77.1 45.51 76.95 50.67 76.88 56.18 76.81 61.69 76.88 67.2 76.84 67.41 72.74 67.38 68.62 67.45 64.51 67.53 60.23 67.67 55.9 66.92 51.67Z" opacity="0.2"/><path d="M50.01 77.21C44.63 77.3 39.26 77.44 33.88 77.53 31.86 77.57 29.83 77.6 27.8 77.64 27.86 78.52 27.91 79.41 27.95 80.3 27.95 80.32 27.94 80.34 27.94 80.37 28.83 81.23 30.65 80.95 31.82 81.03 34.27 81.21 36.67 81.11 39.11 81.04 43.04 80.93 46.97 81.06 50.9 81.24 51.37 81.19 51.84 81.16 52.32 81.13 52.35 81.11 52.38 81.1 52.42 81.11 52.48 81.11 52.55 81.11 52.62 81.12 53.6 81.08 54.59 81.09 55.57 81.13 57.15 81.07 58.74 80.95 60.34 80.95 62.53 80.95 64.72 80.98 66.9 80.95 67.02 79.69 67.11 78.42 67.18 77.16 61.46 77.2 55.74 77.12 50.01 77.21Z" fill="#3F0000"/></g></g><g><path d="M49.44 0.97C49.76 0.93 50.08 0.97 50.37 1.11 51.29 1.56 51.48 2.94 51.42 3.83 51.36 4.88 50.88 5.97 49.73 6.07 49.23 6.11 48.82 5.97 48.5 5.72 48.45 5.79 48.37 5.82 48.27 5.74 46.99 4.66 47.52 0.63 49.44 0.97Z" fill="#765624"/><path d="M48.11 1.63C48.08 1.95 48.08 2.26 48.16 2.54 48.39 3.45 49.48 3.99 50.27 3.29 50.69 2.92 50.92 2.35 51.01 1.72 50.85 1.46 50.64 1.24 50.37 1.1 50.08 0.96 49.76 0.91 49.44 0.96 48.87 0.87 48.42 1.15 48.11 1.63Z" fill="#765624"/><path d="M51.21 2.19C51.04 2.98 50.62 3.63 49.86 3.83 48.41 4.21 47.86 3.24 47.87 2.09 47.38 3.29 47.47 5.08 48.26 5.75 48.35 5.83 48.43 5.79 48.49 5.73 48.82 5.98 49.23 6.12 49.72 6.08 50.87 5.98 51.35 4.89 51.41 3.84 51.45 3.35 51.4 2.73 51.21 2.19Z" fill="#765624"/><path d="M6.77 47.55C6.47 47.79 6.18 48.04 5.9 48.3 5.62 48.57 5.38 48.89 5.13 49.21 5.04 49.32 4.94 49.42 4.85 49.53 4.31 50.09 3.34 50.08 2.63 49.95 1.08 49.67 1.34 47.77 1.93 46.53 9.37 38.1 17.5 30.14 25.76 22.5 29.96 18.62 34.17 14.75 38.39 10.89 40.33 9.13 42.3 7.41 44.23 5.64 45.18 4.77 46.07 3.81 46.99 2.88 46.98 2.94 46.98 2.99 46.97 3.05 46.95 3.15 46.92 3.25 46.9 3.34 46.66 4.45 46.94 5.85 47.95 6.52 48.37 6.8 48.8 6.94 49.22 6.98 49.21 6.98 49.19 7 49.18 7.03 49.15 7.06 49.13 7.08 49.1 7.11 34.16 19.64 19.57 32.8 6.77 47.55Z" fill="#765624"/><path d="M95.82 49.72C95.54 51.27 93.64 51.01 92.4 50.42 83.97 42.97 76 34.84 68.37 26.59 64.49 22.39 60.62 18.18 56.76 13.96 54.61 11.6 52.49 9.16 50.31 6.81 51.21 6.46 51.92 5.59 52.16 4.52 52.27 4.01 52.31 3.38 52.24 2.75 53.09 3.64 53.86 4.47 54.02 4.63 55.36 6.07 56.63 7.57 57.91 9.07 60.6 12.21 63.32 15.32 66.09 18.39 71.59 24.5 77.25 30.48 83.18 36.18 86.52 39.4 89.93 42.55 93.44 45.59 93.68 45.88 93.93 46.17 94.19 46.46 94.46 46.74 94.78 46.98 95.1 47.22 95.21 47.31 95.31 47.41 95.42 47.5 95.97 48.04 95.95 49.01 95.82 49.72Z" fill="#765624"/><path d="M47.96 6.51C46.96 5.84 46.68 4.44 46.91 3.33 46.93 3.24 46.95 3.14 46.98 3.04 46.99 2.98 46.99 2.93 47 2.87 46.46 3.42 45.92 3.99 45.37 4.54 45.73 6.04 43.86 8.33 42.99 9.32 40.8 11.82 38.28 14.05 35.69 16.13 34.33 17.23 33.11 18.54 31.83 19.73 29.96 21.47 28.08 23.19 26.2 24.91 22.44 28.36 18.69 31.83 15.13 35.49 13.36 37.31 11.69 39.22 9.99 41.1 9.1 42.09 8.19 43.07 7.24 44.01 6.5 44.75 5.76 45.63 4.86 46.19 4.09 46.67 2.84 47.03 2.23 46.19 2.13 46.3 2.03 46.41 1.93 46.52 1.34 47.77 1.08 49.66 2.63 49.94 3.34 50.07 4.3 50.08 4.85 49.52 4.95 49.42 5.04 49.31 5.13 49.2 5.37 48.88 5.61 48.55 5.9 48.29 6.18 48.03 6.47 47.78 6.77 47.54 19.57 32.8 34.16 19.64 49.1 7.11 49.13 7.08 49.15 7.06 49.18 7.03 49.2 7.01 49.21 6.99 49.23 6.97 48.81 6.93 48.38 6.79 47.96 6.51Z" fill="#765624"/><path d="M92.13 49.93C88.47 46.36 84.74 42.86 81.28 39.09 77.63 35.1 73.92 31.18 70.23 27.24 66.56 23.33 62.94 19.37 59.28 15.44 57.52 13.55 55.74 11.67 53.94 9.81 53.07 8.91 52.2 8 51.17 7.26 50.93 7.09 50.69 6.92 50.47 6.73 50.42 6.75 50.37 6.78 50.31 6.8 52.5 9.16 54.61 11.59 56.76 13.95 60.61 18.18 64.48 22.38 68.37 26.58 76 34.84 83.97 42.97 92.4 50.41 92.53 50.47 92.66 50.52 92.79 50.57 92.57 50.36 92.36 50.15 92.13 49.93Z" fill="#765624"/><path d="M95.4 47.5C95.3 47.4 95.19 47.31 95.08 47.22 94.76 46.98 94.43 46.74 94.17 46.46 93.91 46.18 93.66 45.89 93.42 45.59 89.91 42.55 86.51 39.4 83.16 36.18 77.24 30.47 71.58 24.5 66.07 18.39 63.3 15.32 60.58 12.21 57.89 9.07 56.61 7.57 55.35 6.07 54 4.63 53.84 4.47 53.07 3.63 52.22 2.75 52.29 3.38 52.25 4.01 52.14 4.52 52.08 4.79 51.99 5.04 51.88 5.28 53.09 5.4 54.51 7.48 55.01 8.12 56.99 10.67 59.18 13.04 61.34 15.43 67.06 21.74 72.69 28.14 78.69 34.19 80.85 36.37 83.04 38.51 85.35 40.53 87.19 42.14 89 43.78 90.72 45.53 91.43 46.26 93.87 48.63 94.98 50.75 95.39 50.59 95.71 50.27 95.81 49.71 95.95 49.01 95.97 48.04 95.4 47.5Z" fill="#765624"/><path d="M5.78 43.09C7.28 41.8 8.6 40.33 9.93 38.87 11.48 37.17 13.11 35.53 14.76 33.91 18.43 30.32 22.2 26.83 25.89 23.26 27.71 21.5 29.55 19.76 31.48 18.13 33.24 16.65 35.03 15.21 36.75 13.67 39.38 11.32 41.95 8.79 43.97 5.88 42.13 7.56 40.25 9.21 38.4 10.89 34.17 14.74 29.97 18.61 25.77 22.5 18.15 29.55 10.64 36.89 3.67 44.61 4.42 44.17 5.12 43.65 5.78 43.09Z" fill="#765624"/></g></g><g><path d="M25.08 28.92C25.08 28.92 24.25 35.82 28.84 35.37 33.43 34.92 31.36 30.13 36.19 29.08 41.02 28.03 60.9 27.77 60.9 27.77 60.9 27.77 63.69 33.08 67.5 32.07 71.31 31.06 68.43 23.89 60.3 22.7 52.18 21.52 26.6 25.73 25.08 28.92Z" fill="#61492D" opacity="0.7"/><g><g><path d="M74.76 19.65C75.05 19.38 75.37 19.12 75.62 18.82 76.27 18.02 76.61 17.25 76.76 16.23 76.94 14.98 76.41 13.54 75.63 12.47 75.15 11.62 74.41 10.95 73.45 10.51 70.74 8.78 67.53 8.77 65.86 12.3 65.86 12.3 65.86 12.31 65.86 12.31 65.81 12.37 65.77 12.42 65.72 12.48 65.66 12.55 65.6 12.65 65.54 12.75 65.42 12.8 65.3 12.84 65.18 12.89 60.86 13.33 56.52 13.78 52.19 14.21 48.04 14.45 49.46 14.34 45.31 14.48 40.91 14.63 44.22 14.22 39.82 14.45 37.46 14.57 35.14 14.69 32.79 14.37 31.57 14.2 30.12 14.01 28.92 13.49 27.83 11.96 25.94 10.86 24.3 11.29 21.7 11.96 19 14.29 18.71 16.92 18.56 17.6 18.53 18.29 18.68 18.91 18.93 19.91 19.34 20.63 20.07 21.37 20.35 21.65 20.69 21.88 21.01 22.12 22.49 23.25 22.31 24.09 21.4 25.37 18.76 29.08 21.29 33.61 25.57 34.25 27.51 34.54 29.51 33.65 30.99 32.47 32.22 31.49 32.66 30.04 32.79 28.55 34.26 27.29 36.07 27.32 38.07 27.29 39.92 27.26 39.61 27.17 41.46 27 45.18 26.66 43.38 26.77 47.12 26.57 50.96 26.36 49.2 26.25 53.04 26.12 54.96 26.06 56.87 26.07 58.79 26.13 59.81 26.16 60.83 26.18 61.82 26.42 62.46 26.57 63.06 26.96 63.69 27.2 63.96 28.68 64.54 30.08 65.86 30.93 67.44 31.95 69.52 32.65 71.42 32.17 75.62 31.12 77.7 26.37 74.71 22.93 73.66 21.73 73.39 20.92 74.76 19.65Z" fill="#231F20"/><path d="M71.27 18.48C71.22 18.65 71.17 18.82 71.12 18.99 71.04 19.32 71.03 19.65 71.1 19.97 71.25 20.35 71.54 20.71 71.86 21.01 71.86 20.79 71.9 20.57 71.99 20.34 72.99 18.02 76.42 17.17 75.23 13.91 74.19 11.04 70.56 10.13 68 11.67 66.74 12.43 66.17 13.49 65.73 14.76 65.42 15.28 65.19 15.85 65.06 16.46 65.04 16.55 64.93 17.21 64.89 17.82 64.85 17.84 64.8 17.85 64.76 17.8 64.02 17.06 64.38 15.34 64.91 13.99 63.72 14.43 62.37 14.47 61.08 14.59 58.62 14.81 56.16 14.96 53.69 15.1 52.71 15.16 51.73 15.21 50.74 15.26 46.2 15.69 47.24 15.96 42.68 16.17 38.26 16.37 41.51 16.14 37.09 16.1 35.21 16.08 33.41 15.82 31.55 15.63 30.86 15.56 30.21 15.47 29.69 15.15 29.88 15.94 29.83 16.74 29.42 17.45 29.38 17.52 29.3 17.57 29.23 17.58 29.11 17.53 29.02 17.4 28.95 17.2 28.95 17.19 28.94 17.18 28.94 17.16 28.96 17.12 28.98 17.07 29.02 17.04 29.07 15.56 28.1 13.73 26.73 12.74 25.7 12.1 24.6 11.86 23.09 12.72 21.48 13.64 19.76 14.98 19.59 16.99 19.4 19.15 20.64 20.16 22.18 21.35 22.37 21.5 22.61 21.68 22.83 21.89 22.92 21.26 22.85 20.61 22.47 19.89 22.12 19.24 22.17 19.39 21.99 18.67 21.94 18.46 22.23 18.11 22.42 18.34 23.38 19.51 24.29 20.3 23.86 21.92 23.74 22.37 23.58 22.81 23.4 23.27 23.33 24.04 23.02 24.68 22.57 25.34 22.15 26.5 21.9 27.67 22.26 28.85 23.09 31.55 25.48 33 28.28 31.92 29.11 31.6 29.74 31.17 30.25 30.65 31.74 29.46 32.61 27.58 32.49 25.64 32.52 25.67 32.55 25.72 32.56 25.79 32.69 25.84 32.78 25.96 32.79 26.2 32.82 26.71 32.84 27.24 32.83 27.78 34.58 26.2 37.14 26.6 39.71 26.4 44.29 26.06 41.16 26.03 45.75 25.81 50.37 25.58 49.39 25.34 54.02 25.25 57.1 25.19 60.75 24.74 63.56 26.26 63.51 25.79 63.48 25.31 63.46 24.86 63.46 24.85 63.46 24.84 63.46 24.82 63.68 25.7 64.12 26.58 64.69 27.34 64.83 27.63 64.99 27.92 65.16 28.18 65.53 29.14 66.17 29.94 67.35 30.53 69.38 31.54 71.72 31.04 73.37 29.65 73.84 29.26 74.2 28.83 74.46 28.37 74.59 27.53 74.64 26.66 74.37 25.89 74.11 25.11 73.73 24.44 73.32 23.77 72.67 23.28 72.11 22.63 71.54 22.09 71.03 21.61 70.54 21.12 70.32 20.43 70.21 20.08 70.23 19.7 70.33 19.32 70.45 19.01 70.63 18.72 70.85 18.46 70.87 18.44 70.89 18.42 70.91 18.39 71.04 18.25 71.18 18.13 71.33 18.02 71.46 17.94 71.59 17.88 71.73 17.81 71.72 17.83 71.7 17.86 71.69 17.88 71.65 17.94 71.57 17.99 71.51 17.99 71.55 18.17 71.48 18.33 71.27 18.48Z" fill="#FFFEEE"/><path d="M71.27 18.48C71.22 18.65 71.17 18.82 71.12 18.99 71.04 19.32 71.03 19.65 71.1 19.97 71.25 20.35 71.54 20.71 71.86 21.01 71.86 20.79 71.9 20.57 71.99 20.34 72.8 18.45 75.24 17.53 75.46 15.48 74.9 15.75 74.32 15.84 73.72 15.65 73.08 15.44 72.39 15.44 71.77 15.22 70.78 14.87 69.57 16.21 69.18 16.98 68.51 18.32 68.5 19.57 68.89 20.98 69.11 21.8 69.43 22.69 69.34 23.55 69.25 24.5 68.03 26.32 66.93 25.38 66.32 24.86 66.17 24.07 65.71 23.46 65.41 23.06 65.23 22.35 64.73 22.23 62.06 21.57 59.53 21.95 56.83 22.17 53.73 22.42 50.59 22.4 47.47 22.58 44.3 22.76 46.71 22.66 43.54 22.93 40.12 23.22 44.41 23.22 40.98 23.49 39.41 23.61 37.81 23.68 36.25 23.41 35.11 23.21 33.85 22.5 32.68 22.57 31.79 22.62 31.32 23.55 30.79 24.15 30.21 24.82 29.59 25.52 28.77 25.89 27.7 26.37 26.76 25.97 26.23 24.94 25.54 23.61 25.31 22.08 25.01 20.62 24.7 19.12 24.11 15.87 22.03 16.08 21.31 16.15 20.59 16.4 20.1 15.67 20.07 15.62 20.04 15.57 20.01 15.53 19.77 15.98 19.6 16.48 19.56 17.02 19.37 19.18 20.61 20.19 22.15 21.38 22.34 21.53 22.58 21.71 22.8 21.92 22.89 21.29 22.82 20.64 22.44 19.92 22.09 19.27 22.14 19.42 21.96 18.7 21.91 18.49 22.2 18.14 22.39 18.37 23.35 19.54 24.26 20.33 23.83 21.95 23.71 22.4 23.55 22.84 23.37 23.3 23.3 24.07 22.99 24.71 22.54 25.37 22.12 26.53 21.87 27.7 22.23 28.88 23.06 31.58 25.45 33.03 28.25 31.95 29.08 31.63 29.71 31.2 30.22 30.68 31.71 29.49 32.58 27.61 32.46 25.67 32.49 25.7 32.52 25.75 32.53 25.82 32.66 25.87 32.75 25.99 32.76 26.23 32.79 26.74 32.81 27.27 32.8 27.81 34.55 26.23 37.11 26.63 39.68 26.43 44.26 26.09 41.13 26.06 45.72 25.84 50.34 25.61 49.36 25.37 53.99 25.28 57.07 25.22 60.72 24.77 63.53 26.29 63.48 25.82 63.45 25.34 63.43 24.89 63.43 24.88 63.43 24.87 63.43 24.85 63.65 25.73 64.09 26.61 64.66 27.37 64.8 27.66 64.96 27.95 65.13 28.21 65.5 29.17 66.14 29.97 67.32 30.56 69.35 31.57 71.69 31.07 73.34 29.68 73.81 29.29 74.17 28.86 74.43 28.4 74.56 27.56 74.61 26.69 74.34 25.92 74.08 25.14 73.7 24.47 73.29 23.8 72.64 23.31 72.08 22.66 71.51 22.12 71 21.64 70.51 21.15 70.29 20.46 70.18 20.11 70.2 19.73 70.3 19.35 70.42 19.04 70.6 18.75 70.82 18.49 70.84 18.47 70.86 18.45 70.88 18.42 71.01 18.28 71.15 18.16 71.3 18.05 71.43 17.97 71.56 17.91 71.7 17.84 71.69 17.86 71.67 17.89 71.66 17.91 71.62 17.97 71.54 18.02 71.48 18.02 71.55 18.17 71.48 18.33 71.27 18.48Z" fill="#C9CACC"/></g><g><g><path d="M45.29 20.06C45.37 19.09 46.28 18.12 48.14 18.28 50 18.44 50.73 19.55 50.65 20.52 50.53 21.93 49.03 22.41 47.8 22.31 46.57 22.2 45.17 21.47 45.29 20.06Z" fill="#94492D"/><path d="M47.43 16.79C47.42 16.51 47.36 16.26 47.15 16.05 46.91 15.82 46.52 15.84 46.25 15.97 46.13 16.02 46.01 16.12 45.9 16.24 45.59 16.44 45.35 16.75 45.26 17.06 45.16 17.39 45.24 17.68 45.46 17.93 45.66 18.16 46.07 18.18 46.34 18.14 46.97 18.03 47.45 17.42 47.43 16.79Z" fill="#94492D"/><path d="M49.54 16.29C49.42 16.26 49.3 16.28 49.17 16.3 49.01 16.28 48.83 16.3 48.67 16.39 48.14 16.67 47.8 17.48 48.32 17.94 48.77 18.33 49.5 18.08 49.86 17.69 50.31 17.2 50.24 16.45 49.54 16.29Z" fill="#94492D"/><path d="M51.67 18.46C51.69 18.22 51.58 18.07 51.38 17.96 51.21 17.87 51.02 17.92 50.87 18 50.87 18 50.87 18 50.86 18 50.86 18 50.86 18 50.85 18 50.83 18.01 50.82 18.02 50.8 18.03 50.62 18.13 50.47 18.3 50.41 18.5 50.35 18.7 50.4 19 50.63 19.08 50.66 19.09 50.69 19.09 50.72 19.1 50.8 19.14 50.91 19.14 51.01 19.11 51.04 19.1 51.07 19.08 51.1 19.07 51.39 18.99 51.64 18.77 51.67 18.46Z" fill="#94492D"/></g></g><path d="M38.88 17.96C38.88 17.84 38.81 17.77 38.68 17.73 38.44 17.67 38.32 17.56 38.32 17.42 38.32 17.31 38.37 17.2 38.47 17.1 38.57 17 38.67 16.94 38.78 16.95L39.4 16.97C39.69 16.97 40.07 16.96 40.55 16.92 41.02 16.89 41.37 16.87 41.61 16.88 42.43 16.89 43.08 17.13 43.57 17.59 44.06 18.06 44.3 18.67 44.29 19.42 44.28 20.25 43.92 20.99 43.2 21.67 42.48 22.34 41.47 22.83 40.15 23.13 39.63 23.25 39.28 23.37 39.09 23.5 38.85 23.66 38.64 23.74 38.48 23.74 38.37 23.74 38.27 23.68 38.18 23.56 38.1 23.44 38.05 23.34 38.05 23.27 38.05 23.24 38.08 23.16 38.14 23.04 38.2 22.91 38.25 22.77 38.27 22.64 38.3 22.51 38.32 22.26 38.34 21.91 38.36 21.56 38.42 21 38.52 20.22 38.62 19.44 38.7 18.89 38.77 18.56 38.85 18.26 38.88 18.07 38.88 17.96ZM40.19 17.98C39.9 19.63 39.75 20.79 39.74 21.47 39.74 21.62 39.75 21.73 39.78 21.81 39.8 21.83 39.83 21.84 39.89 21.84 40.04 21.84 40.43 21.75 41.05 21.56 41.68 21.37 42.19 21.08 42.59 20.68 42.98 20.28 43.19 19.82 43.19 19.31 43.19 18.88 43.05 18.54 42.75 18.28 42.45 18.02 42.05 17.89 41.56 17.88 41.26 17.88 40.9 17.9 40.47 17.95 40.38 17.96 40.28 17.97 40.19 17.98Z" fill="#94492D"/><path d="M55.93 19.22C55.89 19.19 55.78 19.29 55.6 19.52 55.3 19.9 54.92 20.25 54.45 20.56 53.98 20.87 53.53 21.03 53.12 21.05 52.81 21.06 52.56 20.98 52.38 20.79 52.2 20.6 52.1 20.34 52.08 20 52.05 19.47 52.23 18.86 52.6 18.19 52.97 17.52 53.51 16.92 54.21 16.4 54.91 15.88 55.53 15.6 56.08 15.58 56.37 15.57 56.62 15.64 56.84 15.79 56.89 15.83 56.94 15.86 56.98 15.89 57.05 15.93 57.11 16.02 57.17 16.15 57.23 16.28 57.26 16.39 57.27 16.47 57.27 16.52 57.26 16.6 57.22 16.71 57.04 17.29 56.92 17.77 56.86 18.15 56.8 18.53 56.75 19.16 56.7 20.06 56.66 20.86 56.59 21.48 56.52 21.91 56.44 22.34 56.29 22.77 56.06 23.18 55.83 23.59 55.54 23.91 55.2 24.13 54.86 24.35 54.5 24.46 54.13 24.48 53.49 24.51 52.84 24.32 52.2 23.9 51.55 23.48 51.22 23.14 51.21 22.88 51.2 22.71 51.26 22.62 51.39 22.62 51.45 22.62 51.64 22.71 51.96 22.9 52.79 23.4 53.53 23.64 54.18 23.61 54.74 23.58 55.16 23.26 55.42 22.65 55.69 22.03 55.85 21.13 55.9 19.92 55.88 19.65 55.9 19.41 55.93 19.22ZM55.59 16.71C55.37 16.72 55.09 16.85 54.77 17.09 54.45 17.34 54.14 17.69 53.85 18.15 53.56 18.61 53.42 18.99 53.43 19.29 53.44 19.39 53.47 19.47 53.54 19.53 53.61 19.59 53.68 19.61 53.76 19.61 53.99 19.6 54.29 19.46 54.66 19.21 55.02 18.95 55.33 18.6 55.58 18.16 55.83 17.72 55.95 17.38 55.94 17.13 55.91 16.84 55.8 16.7 55.59 16.71Z" fill="#94492D"/></g></g></g></g></svg>